<svg width="24" height="24" fill="none" xmlns="http://www.w3.org/2000/svg" viewBox="0 0 24 24"><path d="M24 12c0 6.627-5.373 12-12 12S0 18.627 0 12 5.373 0 12 0s12 5.373 12 12z" fill="#F84242"/><path d="M12.883 7.125h2.64l-4.99 4.975 1.323 1.328 4.999-4.983v2.675h1.875V5.25h-5.847v1.875z" fill="#fff"/><path d="M7.125 8.07c0-.052.042-.094.094-.094h3.244V6.101H7.219A1.969 1.969 0 005.25 8.07v8.691c0 1.087.881 1.969 1.969 1.969h8.727a1.969 1.969 0 001.969-1.969V13.49H16.04v3.271a.094.094 0 01-.094.094H7.219a.094.094 0 01-.094-.094V8.07z" fill="#fff"/></svg>