<svg width="24" height="24" fill="none" xmlns="http://www.w3.org/2000/svg"><path fill-rule="evenodd" clip-rule="evenodd" d="M24 12c0 6.627-5.373 12-12 12S0 18.627 0 12 5.373 0 12 0s12 5.373 12 12zm-7.834-4.858a6.392 6.392 0 00-.572-.438.966.966 0 01-.125-.1c-.275-.264-.376-.674-.2-1.02.2-.393.685-.553 1.056-.314a7.989 7.989 0 012.94 3.38 8 8 0 11-11.59-3.38c.371-.239.856-.079 1.056.315.176.345.075.755-.2 1.018a.96.96 0 01-.125.101A6.399 6.399 0 0012 18.4a6.4 6.4 0 004.166-11.258zM13 4a1 1 0 10-2 0v5a1 1 0 102 0V4z" fill="#DD3C49"/></svg>