<svg width="24" height="24" fill="none" xmlns="http://www.w3.org/2000/svg"><path d="M17.852 9.327a1.4 1.4 0 001.277-1.514l-.254-2.989a.9.9 0 00-1.793.152l.087 1.021c-1.996-1.624-4.657-2.118-7.054-1.5-3.094.796-5.724 3.426-6.11 7.716a1 1 0 001.991.18c.312-3.457 2.352-5.376 4.618-5.96 1.884-.485 3.944-.06 5.438 1.24l-1.341.114a.9.9 0 00.152 1.793l2.99-.253zM5.096 16.642a1.4 1.4 0 011.277-1.513l2.99-.254a.9.9 0 01.152 1.794l-1.341.113c1.493 1.3 3.553 1.726 5.438 1.24 2.266-.583 4.306-2.502 4.618-5.96a1 1 0 011.991.18c-.386 4.29-3.016 6.92-6.11 7.717-2.398.617-5.058.123-7.054-1.501l.087 1.021a.9.9 0 11-1.794.152l-.254-2.989z" fill="#DD3C49"/></svg>