<svg width="24" height="24" fill="none" xmlns="http://www.w3.org/2000/svg"><path fill-rule="evenodd" clip-rule="evenodd" d="M12 24c6.627 0 12-5.373 12-12S18.627 0 12 0 0 5.373 0 12s5.373 12 12 12zM10.976 2.207a.75.75 0 011.06.026l2.053 2.157a.767.767 0 01.186.798.81.81 0 01-.32.417l-1.864 2.04a.75.75 0 01-1.108-1.011l.928-1.015a6.399 6.399 0 105.718 3.354.957.957 0 01-.064-.147c-.123-.36-.024-.77.291-.996.36-.257.863-.176 1.083.207a8.005 8.005 0 011.032 4.668 8 8 0 11-8.3-8.68l-.722-.758a.75.75 0 01.027-1.06z" fill="#29A347"/></svg>