<svg width="64" height="64" viewBox="0 0 64 64" fill="none" xmlns="http://www.w3.org/2000/svg">
<g clip-path="url(#clip0_466_2)">
<path d="M64 32C64 49.6731 49.6731 64 32 64C14.3269 64 0 49.6731 0 32C0 14.3269 14.3269 0 32 0C49.6731 0 64 14.3269 64 32Z" fill="#3AAAFF"/>
<path fill-rule="evenodd" clip-rule="evenodd" d="M32 58.1333C46.433 58.1333 58.1333 46.433 58.1333 32C58.1333 17.567 46.433 5.86667 32 5.86667C17.567 5.86667 5.86667 17.567 5.86667 32C5.86667 46.433 17.567 58.1333 32 58.1333ZM32 64C49.6731 64 64 49.6731 64 32C64 14.3269 49.6731 0 32 0C14.3269 0 0 14.3269 0 32C0 49.6731 14.3269 64 32 64Z" fill="#9ED0FF"/>
<path d="M34.973 22.3373C37.2739 22.3373 39.1392 20.4709 39.1392 18.1686C39.1392 15.8664 37.2739 14 34.973 14C32.6721 14 30.8068 15.8664 30.8068 18.1686C30.8068 20.4709 32.6721 22.3373 34.973 22.3373Z" fill="white"/>
<path d="M26.424 25.8732C25.711 25.9577 25.1499 26.5223 25.0694 27.2362L25.0091 27.7709C24.8876 28.8489 26.0005 30.9864 26.9834 30.0035C27.9479 29.3883 29.1759 29.2412 28.9374 31.3605L25.3351 47.2618C25.1042 48.8178 26.4143 50.168 27.9755 49.983L34.578 49.3191C35.2899 49.2348 35.8502 48.6711 35.9306 47.9582L35.9918 47.4145C36.1129 46.3407 34.935 44.6066 34.0252 45.1889C33.0658 45.8029 31.842 45.9553 32.0784 43.8406L35.665 27.9308C35.896 26.3748 34.5859 25.0246 33.0247 25.2096L26.424 25.8732Z" fill="white"/>
</g>
<defs>
<clipPath id="clip0_466_2">
<rect width="64" height="64" fill="white"/>
</clipPath>
</defs>
</svg>
