<svg width="64" height="64" viewBox="0 0 64 64" fill="none" xmlns="http://www.w3.org/2000/svg">
<path d="M30.4573 0.559623L1.88349 23.7721L26.4805 43.3536L29.0131 45.3698L32.0018 47.7491L34.9901 45.3714L37.4962 43.3775L62.1259 23.781L62.1285 23.7789L33.6122 0.561349C32.6938 -0.186468 31.3766 -0.187188 30.4573 0.559623Z" fill="#3799C3"/>
<path d="M26.4805 43.3536L2.1521 63.2322L29.0131 45.3698L26.4805 43.3536Z" fill="#3799C3"/>
<path fill-rule="evenodd" clip-rule="evenodd" d="M63.0036 25.3728C63.0036 24.9528 62.6004 24.0722 62.1259 23.781L37.4962 43.3775L61.8513 63.2323L34.9901 45.3714L32.0018 47.7491L29.0131 45.3698L2.1521 63.2322L26.4805 43.3536L1.88349 23.7721C1.49084 23.9778 1 24.8297 1 25.2478V60.7498C1 61.7452 1.44741 62.636 2.1521 63.2322C2.71826 63.7112 3.4505 64 4.25019 64H59.7534C60.553 64 61.2852 63.7113 61.8513 63.2323C62.5561 62.6361 63.0036 61.7452 63.0036 60.7498V25.3728Z" fill="#62BEE8"/>
<path d="M34.9901 45.3714L61.8513 63.2323L37.4962 43.3775L34.9901 45.3714Z" fill="#3799C3"/>
<path d="M32.0018 47.8152L55.7531 28.9392V7.75044H8.25042V28.9392L32.0018 47.8152Z" fill="#EEEEEE"/>
<path d="M50.5028 13.2508H13.5007V14.8759H50.5028V13.2508Z" fill="#547580"/>
<path d="M50.5028 19.5011H13.5007V21.1262H50.5028V19.5011Z" fill="#547580"/>
<path d="M13.5007 25.7515H50.5028V27.3766H13.5007V25.7515Z" fill="#547580"/>
<path d="M44.2525 32.0018H19.7511V33.6269H44.2525V32.0018Z" fill="#547580"/>
</svg>
