<svg width="64" height="64" viewBox="0 0 64 64" fill="none" xmlns="http://www.w3.org/2000/svg">
<g clip-path="url(#clip0_538_2)">
<path d="M47.1868 56.7444C50.8158 53.5631 52.9358 48.909 52.8967 44L63.6582 53.8165C63.9608 54.0924 64.0649 54.5085 63.9609 54.8802C63.8763 55.1825 63.5857 55.3562 63.2988 55.4754L58.5391 57.4533C58.2507 57.5732 58.0311 57.8186 57.9417 58.1211L56.4381 63.2035C56.3504 63.5 56.2116 63.8051 55.9288 63.9222C55.5733 64.0693 55.1507 64.0089 54.8462 63.7312L47.1868 56.7444Z" fill="#F29C1F"/>
<path d="M11.0654 44.0346C11.0365 48.9394 13.1625 53.587 16.7948 56.7612L9.1538 63.7312C8.84933 64.0089 8.42666 64.0693 8.07121 63.9222C7.7884 63.8051 7.64958 63.5 7.56187 63.2035L6.05834 58.1211C5.96886 57.8186 5.74931 57.5732 5.46092 57.4533L0.701235 55.4754C0.414304 55.3562 0.123687 55.1825 0.0391293 54.8802C-0.0648524 54.5085 0.0392039 54.0924 0.341761 53.8165L11.0654 44.0346Z" fill="#F29C1F"/>
<path d="M32 21C26.8047 25.3297 18.8172 26.4903 14.8176 26.56H14.0726L11.3254 40.5328C9.75801 48.505 13.9729 56.4874 21.3796 59.5741L32 64L42.6204 59.5741C50.0271 56.4874 54.242 48.505 52.6746 40.5328L49.9274 26.56H49.1824C45.1828 26.4903 37.1953 25.3297 32 21Z" fill="#3799C3"/>
<path d="M32 26C28.0416 29.3228 21.956 30.2135 18.9087 30.267H18.341L16.2479 40.9903C15.0537 47.1085 18.265 53.2345 23.9083 55.6034L32 59L40.0917 55.6034C45.735 53.2345 48.9463 47.1085 47.7521 40.9903L45.659 30.267H45.0913C42.0441 30.2135 35.9584 29.3228 32 26Z" fill="#9ED0FF"/>
<path d="M22 49L25.3596 42.8797L22.1147 37H24.4582L25.9496 39.6991L26.7854 41.4183L27.6539 39.6819L29.1453 37H31.4396L28.1783 42.8281L31.5871 49H29.2764L27.6539 46.0602L26.7854 44.3238L25.9168 46.043L24.2943 49H22Z" fill="#3D545C"/>
<path d="M34.7892 44.8223V43.0172H37.6407C38.3072 43.0172 38.8425 42.8223 39.2468 42.4327C39.651 42.0315 39.8531 41.51 39.8531 40.8682C39.8531 40.2493 39.6619 39.7507 39.2796 39.3725C38.8972 38.9943 38.3891 38.8052 37.7555 38.8052H34.7892V37H37.7555C38.6076 37 39.3506 37.1605 39.9843 37.4814C40.6289 37.7908 41.126 38.2378 41.4756 38.8223C41.8252 39.4069 42 40.0888 42 40.8682C42 41.659 41.8197 42.3524 41.4592 42.9484C41.0986 43.5444 40.5906 44.0086 39.9351 44.341C39.2905 44.6619 38.5312 44.8223 37.6571 44.8223H34.7892ZM33.3143 49V37H35.3792V49H33.3143Z" fill="#3D545C"/>
<path d="M35.1952 4.50837C35.3386 4.75984 35.5798 4.93998 35.8608 5.00556L40.1962 6.01738C40.9501 6.1933 41.2539 7.10626 40.757 7.70226L37.7733 11.2812C37.5956 11.4943 37.51 11.7697 37.5355 12.0465L37.9779 16.86C38.0517 17.6618 37.231 18.2413 36.5049 17.9002L32.4439 15.9924C32.1633 15.8606 31.8388 15.8615 31.5591 15.995L27.5961 17.8852C26.8695 18.2318 26.0436 17.6522 26.1176 16.8476L26.5581 12.0553C26.584 11.7734 26.4947 11.493 26.3106 11.2785L23.2527 7.7171C22.7411 7.12113 23.0461 6.19229 23.8103 6.01918L28.2817 5.00634C28.5725 4.94046 28.8211 4.75213 28.9641 4.48935L31.1115 0.542527C31.5006 -0.172579 32.5194 -0.182866 32.9227 0.524238L35.1952 4.50837Z" fill="#F0C419"/>
<path d="M56.2434 11.3706C56.3165 11.6165 56.4871 11.8204 56.7142 11.9333L60.2177 13.6753C60.8269 13.9781 60.9072 14.8274 60.3659 15.2425L57.1157 17.7355C56.9222 17.8839 56.7951 18.1046 56.7625 18.3487L56.1957 22.5939C56.1013 23.3011 55.2868 23.6371 54.7337 23.1971L51.6404 20.7364C51.4267 20.5664 51.1494 20.5022 50.8843 20.5614L47.1294 21.4001C46.4409 21.5538 45.8494 20.8879 46.0705 20.2079L47.3871 16.1579C47.4646 15.9196 47.4433 15.6596 47.3282 15.4375L45.416 11.7498C45.096 11.1326 45.5388 10.3917 46.2254 10.3952L50.2422 10.4161C50.5035 10.4174 50.7527 10.3046 50.9264 10.1063L53.5347 7.1282C54.0072 6.58861 54.8792 6.78374 55.0848 7.47512L56.2434 11.3706Z" fill="#F29C1F"/>
<path d="M8.05828 11.4517C7.98515 11.6976 7.81457 11.9014 7.58748 12.0144L4.08397 13.7563C3.47481 14.0592 3.3945 14.9084 3.93576 15.3236L7.18598 17.8166C7.37946 17.965 7.50661 18.1857 7.5392 18.4297L8.106 22.675C8.20042 23.3822 9.01487 23.7182 9.568 23.2782L12.6613 20.8175C12.875 20.6475 13.1523 20.5833 13.4174 20.6425L17.1723 21.4812C17.8608 21.6349 18.4523 20.969 18.2312 20.289L16.9146 16.239C16.8371 16.0007 16.8584 15.7407 16.9735 15.5186L18.8857 11.8308C19.2057 11.2137 18.7629 10.4727 18.0763 10.4763L14.0595 10.4972C13.7982 10.4985 13.549 10.3857 13.3753 10.1874L10.767 7.20928C10.2945 6.66969 9.42254 6.86483 9.21691 7.5562L8.05828 11.4517Z" fill="#F29C1F"/>
</g>
<defs>
<clipPath id="clip0_538_2">
<rect width="64" height="64" fill="white"/>
</clipPath>
</defs>
</svg>
