<svg width="64" height="64" viewBox="0 0 64 64" fill="none" xmlns="http://www.w3.org/2000/svg">
<path d="M64 32C64 49.6731 49.6731 64 32 64C14.3269 64 0 49.6731 0 32C0 14.3269 14.3269 0 32 0C49.6731 0 64 14.3269 64 32Z" fill="#3AAAFF"/>
<path fill-rule="evenodd" clip-rule="evenodd" d="M63.976 33.25H64V31.25H63.9914C63.5986 14.1726 49.8274 0.401378 32.75 0.00861634V0H30.75V0.0239659C13.9046 0.671011 0.397538 14.3396 0.00861634 31.25H0V33.25H0.0239659C0.664621 49.9291 14.0709 63.3354 30.75 63.976V64H32.75V63.9914C49.6604 63.6025 63.329 50.0954 63.976 33.25ZM30.75 48.25V61.8692C27.8728 61.2695 24.9096 58.602 22.4751 53.733C21.6556 52.0939 20.9247 50.2544 20.3032 48.25H30.75ZM32.75 48.25V61.9527C35.7814 61.5718 38.9491 58.8846 41.5249 53.733C42.3444 52.0939 43.0753 50.2544 43.6968 48.25H32.75ZM44.2661 46.25H32.75V33.25H45.9876C45.8944 37.9567 45.2775 42.3641 44.2661 46.25ZM45.7864 48.25C44.0877 54.0025 41.5145 58.5993 38.4326 61.3087C46.2897 59.5922 52.9956 54.7966 57.2221 48.25H45.7864ZM58.4061 46.25H46.3299C47.3114 42.3096 47.8986 37.9074 47.988 33.25H61.9744C61.7821 37.9415 60.5124 42.3551 58.4061 46.25ZM30.75 46.25H19.7339C18.7225 42.3641 18.1056 37.9567 18.0124 33.25H30.75V46.25ZM17.6701 46.25C16.6886 42.3096 16.1014 37.9074 16.012 33.25H2.02557C2.21786 37.9415 3.48757 42.3551 5.59386 46.25H17.6701ZM6.7779 48.25C11.0044 54.7966 17.7103 59.5922 25.5674 61.3087C22.4856 58.5993 19.9123 54.0025 18.2136 48.25H6.7779ZM45.9956 31.25H32.75V18.25H44.3934C45.3637 22.1512 45.9399 26.557 45.9956 31.25ZM32.75 2.04728V16.25H43.8486C43.1954 14.0508 42.4121 12.0415 41.5249 10.267C38.9491 5.11543 35.7814 2.42823 32.75 2.04728ZM38.4326 2.69127C41.6032 5.47879 44.2355 10.2639 45.931 16.25H57.538C53.334 9.44794 46.4884 4.45122 38.4326 2.69127ZM47.9957 31.25C47.9423 26.6044 47.3938 22.2035 46.4518 18.25H58.6705C60.6907 22.1606 61.876 26.5725 61.9908 31.25H47.9957ZM20.1514 16.25H30.75V2.13082C27.8728 2.73047 24.9096 5.39804 22.4751 10.267C21.5879 12.0415 20.8046 14.0508 20.1514 16.25ZM30.75 18.25H19.6066C18.6363 22.1512 18.0601 26.557 18.0044 31.25H30.75V18.25ZM25.5674 2.69127C22.3968 5.47879 19.7645 10.2639 18.069 16.25H6.46203C10.666 9.44794 17.5116 4.45122 25.5674 2.69127ZM17.5482 18.25H5.32954C3.30933 22.1606 2.12396 26.5725 2.00919 31.25H16.0043C16.0577 26.6044 16.6062 22.2035 17.5482 18.25Z" fill="#9ED0FF"/>
<rect x="4" y="46" width="56" height="18" rx="4" fill="#5B6471"/>
<path d="M9.95469 60L7 51H10.0466L11.7289 57.0469H11.8279L13.5809 51H16.5709L18.3522 57.0117H18.4441L20.0982 51H23.1377L20.1901 60H17.0021L15.136 54.3398H15.0017L13.1356 60H9.95469Z" fill="white"/>
<path d="M26.8858 60L23.9312 51H26.9777L28.6601 57.0469H28.759L30.5121 51H33.5021L35.2834 57.0117H35.3753L37.0293 51H40.0688L37.1212 60H33.9333L32.0672 54.3398H31.9328L30.0667 60H26.8858Z" fill="white"/>
<path d="M43.817 60L40.8623 51H43.9089L45.5912 57.0469H45.6902L47.4432 51H50.4332L52.2145 57.0117H52.3064L53.9605 51H57L54.0524 60H50.8644L48.9983 54.3398H48.864L46.9979 60H43.817Z" fill="white"/>
</svg>
