<svg width="64" height="64" viewBox="0 0 64 64" fill="none" xmlns="http://www.w3.org/2000/svg">
<path d="M13 0C10.7909 0 9 1.79086 9 4V60C9 62.2091 10.7909 64 13 64H51C53.2091 64 55 62.2091 55 60V16H43C40.7909 16 39 14.2091 39 12V0H13Z" fill="#D9D9D9"/>
<path d="M55 16H43C40.7909 16 39 14.2091 39 12V0L55 16Z" fill="#547580"/>
<path fill-rule="evenodd" clip-rule="evenodd" d="M43 16C43.5523 16 55 16 55 16V60.125C55 62.2651 53.2651 64 51.125 64H15C14.4477 64 13 64 13 64C13 62.5 14.4477 62 15 62H51.125C52.1605 62 53 61.1605 53 60.125V26.125L43 16Z" fill="black" fill-opacity="0.08"/>
<path d="M23 21C23 20.4477 23.4477 20 24 20H40C40.5523 20 41 20.4477 41 21C41 21.5523 40.5523 22 40 22H24C23.4477 22 23 21.5523 23 21Z" fill="#547580"/>
<path d="M17 30C17 29.4477 17.4477 29 18 29H46C46.5523 29 47 29.4477 47 30C47 30.5523 46.5523 31 46 31H18C17.4477 31 17 30.5523 17 30Z" fill="#547580"/>
<path d="M17 36C17 35.4477 17.4477 35 18 35H46C46.5523 35 47 35.4477 47 36C47 36.5523 46.5523 37 46 37H18C17.4477 37 17 36.5523 17 36Z" fill="#547580"/>
<path d="M17 42C17 41.4477 17.4477 41 18 41H46C46.5523 41 47 41.4477 47 42C47 42.5523 46.5523 43 46 43H18C17.4477 43 17 42.5523 17 42Z" fill="#547580"/>
<path d="M17 48C17 47.4477 17.4477 47 18 47H46C46.5523 47 47 47.4477 47 48C47 48.5523 46.5523 49 46 49H18C17.4477 49 17 48.5523 17 48Z" fill="#547580"/>
<path d="M17 54C17 53.4477 17.4477 53 18 53H34C34.5523 53 35 53.4477 35 54C35 54.5523 34.5523 55 34 55H18C17.4477 55 17 54.5523 17 54Z" fill="#547580"/>
</svg>
