<svg width="64" height="64" viewBox="0 0 64 64" fill="none" xmlns="http://www.w3.org/2000/svg">
<path d="M0 9.99894C0 7.7898 1.78834 6 3.99748 6C9.72378 6 17.722 6 23.1004 6C23.9619 6 24.811 6.26352 25.4926 6.7904C26.0945 7.25573 26.6506 7.75743 27.0973 8.44403C28.2458 10.2092 29.7607 12 31.8666 12C41.6427 12 52.5808 12 60.0027 12C62.2119 12 64 13.7914 64 16.0005C64 20.0593 64 23.4999 64 23.4999H0C0 23.4999 0 16.0375 0 9.99894Z" fill="#3390B7"/>
<path d="M0 23C0 20.7909 1.79086 19 4 19H60C62.2091 19 64 20.7909 64 23V54C64 56.2091 62.2091 58 60 58H4C1.79086 58 0 56.2091 0 54V23Z" fill="#62BEE8"/>
<path d="M24 37C24 35.8954 24.8954 35 26 35H40C41.1046 35 42 35.8954 42 37C42 38.1046 41.1046 39 40 39H26C24.8954 39 24 38.1046 24 37Z" fill="#3390B7"/>
<path fill-rule="evenodd" clip-rule="evenodd" d="M64 23C64 23 64 24.1977 64 24.75V54.125C64 56.2651 62.2651 58 60.125 58H5.875C5.32272 58 4 58 4 58C4 56.6875 5.32272 56 5.875 56H60.125C61.1605 56 62 55.1605 62 54.125V24.75C62 24.1977 62.6875 23 64 23Z" fill="#3390B7"/>
<path d="M6 18C6 16.8954 6.89543 16 8 16H57C58.1046 16 59 16.8954 59 18V19H6V18Z" fill="white"/>
</svg>
