<svg width="64" height="64" viewBox="0 0 64 64" fill="none" xmlns="http://www.w3.org/2000/svg">
<path d="M6.625 10.72C6.625 7.00865 9.64708 4 13.375 4H57.25C60.9779 4 64 7.00865 64 10.72V43.4489C64 47.1602 60.9779 50.1689 57.25 50.1689H13.375C9.64708 50.1689 6.625 47.1602 6.625 43.4489V10.72Z" fill="#547580"/>
<path d="M0 20.5511C0 16.8398 3.02208 13.8311 6.75 13.8311H50.625C54.3529 13.8311 57.375 16.8398 57.375 20.5511V53.28C57.375 56.9914 54.3529 60 50.625 60H6.75C3.02208 60 0 56.9914 0 53.28V20.5511Z" fill="#84B5CB"/>
<path d="M57.375 33.9094V53.28C57.375 56.9914 54.3529 60 50.625 60H16.1118C21.6644 44.6875 36.392 33.7422 53.6875 33.7422C54.9308 33.7422 56.1607 33.7988 57.375 33.9094Z" fill="#5D4C72"/>
<path d="M42.0002 60H6.75C3.02208 60 0 56.9914 0 53.28V31.6694C1.21426 31.5588 2.44425 31.5022 3.6875 31.5022C21.8152 31.5022 37.122 43.5261 42.0002 60Z" fill="#955BA5"/>
<path d="M37.625 27.0222C37.625 28.8779 36.114 30.3822 34.25 30.3822C32.386 30.3822 30.875 28.8779 30.875 27.0222C30.875 25.1665 32.386 23.6622 34.25 23.6622C36.114 23.6622 37.625 25.1665 37.625 27.0222Z" fill="#F0C419"/>
<path fill-rule="evenodd" clip-rule="evenodd" d="M50.625 18.1867H6.75C5.43832 18.1867 4.375 19.2453 4.375 20.5511V53.28C4.375 54.5858 5.43832 55.6444 6.75 55.6444H50.625C51.9367 55.6444 53 54.5858 53 53.28V20.5511C53 19.2453 51.9367 18.1867 50.625 18.1867ZM6.75 13.8311C3.02208 13.8311 0 16.8398 0 20.5511V53.28C0 56.9914 3.02208 60 6.75 60H50.625C54.3529 60 57.375 56.9914 57.375 53.28V20.5511C57.375 16.8398 54.3529 13.8311 50.625 13.8311H6.75Z" fill="white"/>
</svg>
