<svg width="64" height="64" viewBox="0 0 64 64" fill="none" xmlns="http://www.w3.org/2000/svg">
<path d="M0 17.906C0 16.4234 1.20966 15.2215 2.70185 15.2215H61.2982C62.7903 15.2215 64 16.4234 64 17.906V54.3154C64 55.7981 62.7903 57 61.2982 57H2.70185C1.20966 57 0 55.7981 0 54.3154V17.906Z" fill="#547580"/>
<path d="M21.7836 7C20.9443 7 20.2639 7.67608 20.2639 8.51007V15.2215H22.9657V9.68456H40.8654V15.2215H43.5673V8.51007C43.5673 7.67608 42.8868 7 42.0475 7H21.7836Z" fill="#3D545C"/>
<path d="M12.3272 15.2215H16.7177V57H12.3272V15.2215Z" fill="#3D545C"/>
<path d="M47.1135 15.2215H51.504V57H47.1135V15.2215Z" fill="#3D545C"/>
<path d="M18.9129 14.2148H24.3166V15.2215H18.9129V14.2148Z" fill="#D9D9D9"/>
<path fill-rule="evenodd" clip-rule="evenodd" d="M10.4697 28.3087C10.4697 27.1967 11.3769 26.2953 12.496 26.2953H16.5488C17.668 26.2953 18.5752 27.1967 18.5752 28.3087V33.8456C18.5752 34.9576 17.668 35.8591 16.5488 35.8591H12.496C11.3769 35.8591 10.4697 34.9576 10.4697 33.8456V28.3087ZM12.496 28.1409H16.5488C16.6421 28.1409 16.7177 28.2161 16.7177 28.3087V33.8456C16.7177 33.9383 16.6421 34.0134 16.5488 34.0134H12.496C12.4028 34.0134 12.3272 33.9383 12.3272 33.8456V28.3087C12.3272 28.2161 12.4028 28.1409 12.496 28.1409Z" fill="#D9D9D9"/>
<path fill-rule="evenodd" clip-rule="evenodd" d="M45.2559 28.3087C45.2559 27.1967 46.1632 26.2953 47.2823 26.2953H51.3351C52.4542 26.2953 53.3615 27.1967 53.3615 28.3087V33.8456C53.3615 34.9576 52.4542 35.8591 51.3351 35.8591H47.2823C46.1632 35.8591 45.2559 34.9576 45.2559 33.8456V28.3087ZM47.2823 28.1409H51.3351C51.4284 28.1409 51.504 28.2161 51.504 28.3087V33.8456C51.504 33.9383 51.4284 34.0134 51.3351 34.0134H47.2823C47.1891 34.0134 47.1135 33.9383 47.1135 33.8456V28.3087C47.1135 28.2161 47.1891 28.1409 47.2823 28.1409Z" fill="#D9D9D9"/>
<path d="M44.9182 14.2148H39.5145V15.2215H44.9182V14.2148Z" fill="#D9D9D9"/>
</svg>
