<svg width="64" height="64" viewBox="0 0 64 64" fill="none" xmlns="http://www.w3.org/2000/svg">
<g clip-path="url(#clip0_532_2)">
<path d="M30.9801 0.764938C30.9801 0.342473 31.3226 0 31.745 0H32.255C32.6774 0 33.0199 0.342475 33.0199 0.76494V11.8819C37.814 12.121 42.1668 14.0362 45.5042 17.0534L53.3653 9.19228C53.6641 8.89356 54.1484 8.89356 54.4471 9.19228L54.8077 9.55288C55.1064 9.85161 55.1064 10.3359 54.8077 10.6347L46.9466 18.4958C49.9638 21.8332 51.879 26.186 52.1181 30.9801H63.2351C63.6575 30.9801 64 31.3226 64 31.745V32.255C64 32.6774 63.6575 33.0199 63.2351 33.0199H52.1181C51.879 37.814 49.9638 42.1668 46.9466 45.5042L54.8077 53.3653C55.1064 53.6641 55.1064 54.1484 54.8077 54.4471L54.4471 54.8077C54.1484 55.1064 53.6641 55.1064 53.3653 54.8077L45.5042 46.9466C42.1668 49.9638 37.814 51.879 33.0199 52.1181V63.2351C33.0199 63.6575 32.6774 64 32.255 64H31.745C31.3226 64 30.9801 63.6575 30.9801 63.2351V52.1181C26.186 51.879 21.8332 49.9638 18.4958 46.9466L10.6347 54.8077C10.3359 55.1064 9.85161 55.1064 9.55288 54.8077L9.19228 54.4471C8.89356 54.1484 8.89356 53.6641 9.19228 53.3653L17.0534 45.5042C14.0362 42.1668 12.121 37.814 11.8819 33.0199H0.764938C0.342473 33.0199 0 32.6774 0 32.255V31.745C0 31.3226 0.342475 30.9801 0.76494 30.9801H11.8819C12.121 26.186 14.0362 21.8332 17.0534 18.4958L9.19228 10.6347C8.89356 10.3359 8.89356 9.85161 9.19228 9.55288L9.55288 9.19228C9.85161 8.89356 10.3359 8.89356 10.6347 9.19228L18.4958 17.0534C21.8332 14.0362 26.186 12.121 30.9801 11.8819V0.764938Z" fill="#D9D9D9"/>
<path d="M32 31.2857C35.9418 31.2857 39.1373 28.0877 39.1373 24.1429C39.1373 20.198 35.9418 17 32 17C28.0582 17 24.8627 20.198 24.8627 24.1429C24.8627 28.0877 28.0582 31.2857 32 31.2857Z" fill="#547580"/>
<path d="M22.6961 32.9439C20.6548 32.9439 19 34.6 19 36.6429V38.301C19 40.3439 20.6548 42 22.6961 42L30.6938 45.8682C31.5189 46.2673 32.4811 46.2673 33.3062 45.8682L41.3039 42C43.3452 42 45 40.3439 45 38.301V36.6429C45 34.6 43.3452 32.9439 41.3039 32.9439H22.6961Z" fill="#547580"/>
<path d="M12.5052 6.74074C12.5052 9.91126 9.92964 12.4815 6.75258 12.4815C3.57552 12.4815 1 9.91126 1 6.74074C1 3.57022 3.57552 1 6.75258 1C9.92964 1 12.5052 3.57022 12.5052 6.74074Z" fill="#FFC536"/>
<path d="M63 6.74074C63 9.91126 60.4245 12.4815 57.2474 12.4815C54.0704 12.4815 51.4948 9.91126 51.4948 6.74074C51.4948 3.57022 54.0704 1 57.2474 1C60.4245 1 63 3.57022 63 6.74074Z" fill="#17BE66"/>
<path d="M63 57.2593C63 60.4298 60.4245 63 57.2474 63C54.0704 63 51.4948 60.4298 51.4948 57.2593C51.4948 54.0887 54.0704 51.5185 57.2474 51.5185C60.4245 51.5185 63 54.0887 63 57.2593Z" fill="#F34624"/>
<path d="M6.75258 63C9.92964 63 12.5052 60.4298 12.5052 57.2593C12.5052 54.0887 9.92964 51.5185 6.75258 51.5185C3.57552 51.5185 1 54.0887 1 57.2593C1 60.4298 3.57552 63 6.75258 63Z" fill="#3799C3"/>
</g>
<defs>
<clipPath id="clip0_532_2">
<rect width="64" height="64" fill="white"/>
</clipPath>
</defs>
</svg>
