<svg width="64" height="64" viewBox="0 0 64 64" fill="none" xmlns="http://www.w3.org/2000/svg">
<path d="M54.72 15.2727C54.72 18.7984 51.8904 21.6566 48.4 21.6566C44.9096 21.6566 42.08 18.7984 42.08 15.2727C42.08 11.747 44.9096 8.88889 48.4 8.88889C51.8904 8.88889 54.72 11.747 54.72 15.2727Z" fill="#3AAAFF"/>
<path fill-rule="evenodd" clip-rule="evenodd" d="M64 0H33.44V30.5455H64V0ZM57.6 15.2727C57.6 20.4051 53.481 24.5657 48.4 24.5657C43.319 24.5657 39.2 20.4051 39.2 15.2727C39.2 10.1404 43.319 5.9798 48.4 5.9798C53.481 5.9798 57.6 10.1404 57.6 15.2727Z" fill="#3AAAFF"/>
<path d="M15.28 55.1111C18.7704 55.1111 21.6 52.253 21.6 48.7273C21.6 45.2016 18.7704 42.3434 15.28 42.3434C11.7896 42.3434 8.96 45.2016 8.96 48.7273C8.96 52.253 11.7896 55.1111 15.28 55.1111Z" fill="#3AAAFF"/>
<path fill-rule="evenodd" clip-rule="evenodd" d="M30.56 33.4545H0V64H30.56V33.4545ZM15.28 58.0202C20.361 58.0202 24.48 53.8596 24.48 48.7273C24.48 43.5949 20.361 39.4343 15.28 39.4343C10.199 39.4343 6.08 43.5949 6.08 48.7273C6.08 53.8596 10.199 58.0202 15.28 58.0202Z" fill="#3AAAFF"/>
<path fill-rule="evenodd" clip-rule="evenodd" d="M30.56 0H0V30.5455H30.56V0ZM22.3717 5.57002L24.6345 7.85562L17.62 14.941L25.087 22.4834L22.8243 24.769L15.3572 17.2266L7.89019 24.769L5.62745 22.4834L13.0945 14.941L6.08 7.85562L8.34274 5.57002L15.3572 12.6554L22.3717 5.57002Z" fill="#F6B545"/>
<path fill-rule="evenodd" clip-rule="evenodd" d="M64 33.4545H33.44V64H64V33.4545ZM58.0752 41.5855L55.8124 39.2999L48.7976 46.3856L41.7827 39.2999L39.52 41.5855L46.5349 48.6712L39.0682 56.2133L41.3309 58.4989L48.7976 50.9568L56.2643 58.4989L58.527 56.2133L51.0603 48.6712L58.0752 41.5855Z" fill="#F6B545"/>
</svg>
