<svg width="72" height="72" viewBox="0 0 72 72" fill="none" xmlns="http://www.w3.org/2000/svg">
<rect width="72" height="72" fill="#FDE2BA"/>
<path fill-rule="evenodd" clip-rule="evenodd" d="M36.3605 28.2707C36.3605 28.0663 36.1933 27.9005 35.9871 27.9005C35.7809 27.9005 35.6138 28.0663 35.6138 28.2707V33.2979C34.5026 33.4751 33.6538 34.4304 33.6538 35.5822C33.6538 36.0994 33.8249 36.577 34.1141 36.9622L29.1897 41.8452C29.0439 41.9898 29.0439 42.2242 29.1897 42.3687C29.3355 42.5133 29.5719 42.5133 29.7177 42.3687L34.6496 37.4783C35.0283 37.7415 35.4895 37.8959 35.9871 37.8959C37.2758 37.8959 38.3205 36.86 38.3205 35.5822C38.3205 34.4304 37.4717 33.4751 36.3605 33.2979V28.2707ZM34.4471 35.5822C34.4471 36.467 35.1881 37.1093 35.9871 37.1093C36.8795 37.1093 37.5272 36.3745 37.5272 35.5822C37.5272 34.6974 36.7861 34.0551 35.9871 34.0551C35.0948 34.0551 34.4471 34.7899 34.4471 35.5822Z" fill="#2F3A5A"/>
<path d="M35.9871 20.8667C36.1933 20.8667 36.3605 21.0325 36.3605 21.2369V22.6252C36.3605 22.8297 36.1933 22.9954 35.9871 22.9954C35.7809 22.9954 35.6138 22.8297 35.6138 22.6252V21.2369C35.6138 21.0325 35.7809 20.8667 35.9871 20.8667Z" fill="#2F3A5A"/>
<path d="M35.9871 48.2615C36.1933 48.2615 36.3605 48.4273 36.3605 48.6317V50.02C36.3605 50.2244 36.1933 50.3902 35.9871 50.3902C35.7809 50.3902 35.6138 50.2244 35.6138 50.02V48.6317C35.6138 48.4273 35.7809 48.2615 35.9871 48.2615Z" fill="#2F3A5A"/>
<path d="M21.1002 35.6285C21.1002 35.424 21.2673 35.2583 21.4735 35.2583H22.8735C23.0797 35.2583 23.2469 35.424 23.2469 35.6285C23.2469 35.8329 23.0797 35.9987 22.8735 35.9987H21.4735C21.2673 35.9987 21.1002 35.8329 21.1002 35.6285Z" fill="#2F3A5A"/>
<path d="M48.7274 35.6285C48.7274 35.424 48.8945 35.2583 49.1007 35.2583H50.5008C50.7069 35.2583 50.8741 35.424 50.8741 35.6285C50.8741 35.8329 50.7069 35.9987 50.5008 35.9987H49.1007C48.8945 35.9987 48.7274 35.8329 48.7274 35.6285Z" fill="#2F3A5A"/>
<path d="M25.4242 25.2007C25.57 25.0561 25.8064 25.0561 25.9522 25.2007L26.9422 26.1824C27.088 26.3269 27.088 26.5613 26.9422 26.7059C26.7964 26.8505 26.56 26.8505 26.4142 26.7059L25.4242 25.7243C25.2785 25.5797 25.2785 25.3453 25.4242 25.2007Z" fill="#2F3A5A"/>
<path d="M44.9596 44.5718C45.1054 44.4272 45.3418 44.4272 45.4876 44.5718L46.4776 45.5534C46.6234 45.698 46.6234 45.9324 46.4776 46.0769C46.3318 46.2215 46.0954 46.2215 45.9496 46.0769L44.9596 45.0953C44.8138 44.9507 44.8138 44.7163 44.9596 44.5718Z" fill="#2F3A5A"/>
<path d="M46.4776 25.2007C46.6234 25.3453 46.6234 25.5797 46.4776 25.7243L45.4876 26.7059C45.3418 26.8505 45.1054 26.8505 44.9596 26.7059C44.8138 26.5613 44.8138 26.3269 44.9596 26.1824L45.9496 25.2007C46.0954 25.0561 46.3318 25.0561 46.4776 25.2007Z" fill="#2F3A5A"/>
<path d="M26.9422 44.5718C27.088 44.7163 27.088 44.9507 26.9422 45.0953L25.9522 46.0769C25.8064 46.2215 25.57 46.2215 25.4243 46.0769C25.2785 45.9324 25.2785 45.698 25.4243 45.5534L26.4142 44.5718C26.56 44.4272 26.7964 44.4272 26.9422 44.5718Z" fill="#2F3A5A"/>
<path fill-rule="evenodd" clip-rule="evenodd" d="M19.2335 35.6747C19.2335 44.8497 26.7343 52.2875 35.9871 52.2875C45.2399 52.2875 52.7408 44.8497 52.7408 35.6747C52.7408 26.4998 45.2399 19.062 35.9871 19.062C26.7343 19.062 19.2335 26.4998 19.2335 35.6747ZM35.9871 51.5471C27.1467 51.5471 19.9802 44.4408 19.9802 35.6747C19.9802 26.9087 27.1467 19.8024 35.9871 19.8024C44.8275 19.8024 51.9941 26.9087 51.9941 35.6747C51.9941 44.4408 44.8275 51.5471 35.9871 51.5471Z" fill="#2F3A5A"/>
<path fill-rule="evenodd" clip-rule="evenodd" d="M24.906 15.1957C23.4882 13.7898 21.5652 13 19.5601 13C17.6747 13 15.8619 13.6984 14.4734 14.9507C14.4734 14.9507 13.9672 14.2957 13.68 14.2957C13.4934 14.2957 13.3067 14.3882 13.3067 14.6659C13.3067 14.9898 13.9672 15.4526 13.9672 15.4526C12.7043 16.8294 12 18.627 12 20.4965C12 22.4848 12.7965 24.3915 14.2143 25.7974L19.2801 20.7742L20.3212 21.8065C17.0035 25.4889 14.9867 30.3483 14.9867 35.6747C14.9867 41.9561 17.7915 47.5879 22.2269 51.4059L20.1201 56.0021C19.6768 56.9694 20.0471 58.1124 20.9755 58.6426C22.052 59.2716 23.4386 58.925 24.0857 57.8648L26.338 54.1751C29.2272 55.6597 32.5084 56.4985 35.9871 56.4985C39.4479 56.4985 42.7132 55.6684 45.5915 54.198L47.8565 57.9087C48.5036 58.9688 49.8902 59.3154 50.9667 58.6865C51.8951 58.1562 52.2654 57.0133 51.8221 56.046L49.71 51.438C54.167 47.6195 56.9875 41.9738 56.9875 35.6747C56.9875 30.3548 54.9757 25.5008 51.6652 21.82L52.7199 20.7742L57.7857 25.7974C59.2035 24.3915 60 22.4848 60 20.4965C60 18.627 59.2957 16.8294 58.0328 15.4526C58.0328 15.4526 58.6933 14.9898 58.6933 14.6659C58.6933 14.3882 58.5066 14.2957 58.32 14.2957C58.0328 14.2957 57.5266 14.9507 57.5266 14.9507C56.1381 13.6984 54.3253 13 52.4398 13C50.4348 13 48.5118 13.7898 47.094 15.1957L52.2065 20.2652L51.1723 21.2906C47.3486 17.3227 41.959 14.851 35.9871 14.851C30.0219 14.851 24.6375 17.3173 20.8145 21.2776L19.7935 20.2652L24.906 15.1957ZM49.1149 51.9292C48.2174 52.6429 47.2594 53.285 46.2499 53.8468L48.4953 57.5253C48.9309 58.2389 49.8646 58.472 50.589 58.0478L50.5909 58.0467L50.5928 58.0456C51.1888 57.706 51.4267 56.9728 51.1423 56.3523L49.1149 51.9292ZM20.7999 56.3085L22.8211 51.8988C23.7167 52.6143 24.6728 53.2584 25.6805 53.8223L23.4469 57.4814C23.0113 58.1951 22.0776 58.4281 21.3532 58.004L21.3513 58.0028L21.3494 58.0018C20.7534 57.6622 20.5155 56.929 20.7999 56.3085ZM23.7602 15.3804L14.4006 24.6613C13.439 23.49 12.9072 22.0205 12.9072 20.4965C12.9072 18.7469 13.6081 17.069 14.8558 15.8318C16.1035 14.5946 17.7957 13.8996 19.5601 13.8996C21.097 13.8996 22.579 14.4269 23.7602 15.3804ZM35.9871 55.7581C47.173 55.7581 56.2409 46.7665 56.2409 35.6747C56.2409 24.583 47.173 15.5914 35.9871 15.5914C24.8013 15.5914 15.7334 24.583 15.7334 35.6747C15.7334 46.7665 24.8013 55.7581 35.9871 55.7581ZM57.5994 24.6613C58.561 23.49 59.0928 22.0205 59.0928 20.4965C59.0928 18.7469 58.3918 17.069 57.1442 15.8318C55.8965 14.5946 54.2043 13.8996 52.4398 13.8996C50.903 13.8996 49.421 14.4269 48.2398 15.3804L57.5994 24.6613Z" fill="#2F3A5A"/>
<path d="M14.4006 24.6613L23.7602 15.3804C22.579 14.4269 21.097 13.8996 19.5601 13.8996C17.7957 13.8996 16.1035 14.5946 14.8558 15.8318C13.6081 17.069 12.9072 18.7469 12.9072 20.4965C12.9072 22.0205 13.439 23.49 14.4006 24.6613Z" fill="#FABA59"/>
<path fill-rule="evenodd" clip-rule="evenodd" d="M56.2409 35.6747C56.2409 46.7665 47.173 55.7581 35.9871 55.7581C24.8013 55.7581 15.7334 46.7665 15.7334 35.6747C15.7334 24.583 24.8013 15.5914 35.9871 15.5914C47.173 15.5914 56.2409 24.583 56.2409 35.6747ZM19.2335 35.6747C19.2335 44.8497 26.7343 52.2875 35.9871 52.2875C45.2399 52.2875 52.7408 44.8497 52.7408 35.6747C52.7408 26.4998 45.2399 19.062 35.9871 19.062C26.7343 19.062 19.2335 26.4998 19.2335 35.6747Z" fill="#FABA59"/>
<path d="M59.0928 20.4965C59.0928 22.0205 58.561 23.49 57.5994 24.6613L48.2398 15.3804C49.421 14.4269 50.903 13.8996 52.4398 13.8996C54.2043 13.8996 55.8965 14.5946 57.1442 15.8318C58.3918 17.069 59.0928 18.7469 59.0928 20.4965Z" fill="#FABA59"/>
<path d="M22.8211 51.8988L20.7999 56.3085C20.5155 56.929 20.7534 57.6622 21.3494 58.0018L21.3513 58.0028L21.3532 58.004C22.0776 58.4281 23.0113 58.1951 23.4469 57.4814L25.6805 53.8223C24.6728 53.2584 23.7167 52.6143 22.8211 51.8988Z" fill="#FABA59"/>
<path d="M46.2499 53.8468C47.2594 53.285 48.2174 52.6429 49.1149 51.9292L51.1423 56.3523C51.4267 56.9728 51.1888 57.706 50.5928 58.0456L50.5909 58.0467L50.589 58.0478C49.8646 58.472 48.9309 58.2389 48.4953 57.5253L46.2499 53.8468Z" fill="#FABA59"/>
<path fill-rule="evenodd" clip-rule="evenodd" d="M19.9802 35.6747C19.9802 44.4408 27.1467 51.5471 35.9871 51.5471C44.8275 51.5471 51.9941 44.4408 51.9941 35.6747C51.9941 26.9087 44.8275 19.8024 35.9871 19.8024C27.1467 19.8024 19.9802 26.9087 19.9802 35.6747ZM36.3605 28.2707C36.3605 28.0663 36.1933 27.9005 35.9871 27.9005C35.7809 27.9005 35.6138 28.0663 35.6138 28.2707V33.2979C34.5026 33.4751 33.6538 34.4304 33.6538 35.5822C33.6538 36.0994 33.8249 36.577 34.1141 36.9622L29.1897 41.8452C29.0439 41.9898 29.0439 42.2242 29.1897 42.3687C29.3355 42.5133 29.5719 42.5133 29.7177 42.3687L34.6496 37.4783C35.0283 37.7415 35.4895 37.8959 35.9871 37.8959C37.2758 37.8959 38.3205 36.86 38.3205 35.5822C38.3205 34.4304 37.4717 33.4751 36.3605 33.2979V28.2707ZM35.9871 20.8667C36.1933 20.8667 36.3605 21.0325 36.3605 21.2369V22.6252C36.3605 22.8297 36.1933 22.9954 35.9871 22.9954C35.7809 22.9954 35.6138 22.8297 35.6138 22.6252V21.2369C35.6138 21.0325 35.7809 20.8667 35.9871 20.8667ZM35.9871 48.2615C36.1933 48.2615 36.3605 48.4273 36.3605 48.6317V50.02C36.3605 50.2244 36.1933 50.3902 35.9871 50.3902C35.7809 50.3902 35.6138 50.2244 35.6138 50.02V48.6317C35.6138 48.4273 35.7809 48.2615 35.9871 48.2615ZM21.1002 35.6285C21.1002 35.424 21.2673 35.2583 21.4735 35.2583H22.8735C23.0797 35.2583 23.2469 35.424 23.2469 35.6285C23.2469 35.8329 23.0797 35.9987 22.8735 35.9987H21.4735C21.2673 35.9987 21.1002 35.8329 21.1002 35.6285ZM48.7274 35.6285C48.7274 35.424 48.8945 35.2583 49.1007 35.2583H50.5008C50.7069 35.2583 50.8741 35.424 50.8741 35.6285C50.8741 35.8329 50.7069 35.9987 50.5008 35.9987H49.1007C48.8945 35.9987 48.7274 35.8329 48.7274 35.6285ZM25.4242 25.2007C25.57 25.0561 25.8064 25.0561 25.9522 25.2007L26.9422 26.1824C27.088 26.3269 27.088 26.5613 26.9422 26.7059C26.7964 26.8505 26.56 26.8505 26.4142 26.7059L25.4242 25.7243C25.2785 25.5797 25.2785 25.3453 25.4242 25.2007ZM44.9596 44.5718C45.1054 44.4272 45.3418 44.4272 45.4876 44.5718L46.4776 45.5534C46.6234 45.698 46.6234 45.9324 46.4776 46.0769C46.3318 46.2215 46.0954 46.2215 45.9496 46.0769L44.9596 45.0953C44.8138 44.9507 44.8138 44.7163 44.9596 44.5718ZM46.4776 25.2007C46.6234 25.3453 46.6234 25.5797 46.4776 25.7243L45.4876 26.7059C45.3418 26.8505 45.1054 26.8505 44.9596 26.7059C44.8138 26.5613 44.8138 26.3269 44.9596 26.1824L45.9496 25.2007C46.0954 25.0561 46.3318 25.0561 46.4776 25.2007ZM26.9422 44.5718C27.088 44.7163 27.088 44.9507 26.9422 45.0953L25.9522 46.0769C25.8064 46.2215 25.57 46.2215 25.4243 46.0769C25.2785 45.9324 25.2785 45.698 25.4243 45.5534L26.4142 44.5718C26.56 44.4272 26.7964 44.4272 26.9422 44.5718Z" fill="#DBE2EB"/>
<path d="M35.9871 37.1093C35.1881 37.1093 34.4471 36.467 34.4471 35.5822C34.4471 34.7899 35.0948 34.0551 35.9871 34.0551C36.7861 34.0551 37.5272 34.6974 37.5272 35.5822C37.5272 36.3745 36.8795 37.1093 35.9871 37.1093Z" fill="#9297AB"/>
<path d="M24.6936 47.2435C36.5005 57.5165 51.9889 48.8611 52.3208 35.6747C52.3208 25.448 43.3139 18.5993 34.1204 19.5711C44.3873 19.7099 50.7808 26.7042 50.7808 35.6747C51.2474 45.2074 38.4605 57.1926 24.6936 47.2435Z" fill="black" fill-opacity="0.1"/>
<path d="M14.7534 15.9153C11.7667 19.3952 12.98 22.764 14.38 24.7076L15.6867 23.3656C13.4094 20.9963 14.1156 17.4424 14.7534 15.9153Z" fill="black" fill-opacity="0.07"/>
<path d="M57.0961 15.7855C60.1609 18.8769 59.133 22.7851 57.6258 24.6625L56.2957 23.3433C58.531 20.935 57.7607 17.3013 57.0961 15.7855Z" fill="black" fill-opacity="0.07"/>
</svg>
