<svg width="72" height="72" viewBox="0 0 72 72" fill="none" xmlns="http://www.w3.org/2000/svg">
<rect width="72" height="72" fill="#F6D7D5"/>
<path d="M31.464 59.9892C33.2667 60.1108 35.2479 59.1771 36.025 58.6958C37.3494 59.6865 39.8979 60.5359 42.8543 59.5699C44.055 59.1775 47.2285 57.5721 49.6143 54.5337C52.2855 51.3559 54.1684 47.5648 54.8235 46.0667C56.7872 41.9008 56.9929 38.2432 56.9999 36.6484C57.0177 32.5584 55.2635 29.7928 54.424 28.851C53.2907 27.5796 50.2696 23.9548 44.3383 23.9289C40.4948 23.9121 39.2083 25.126 36.0291 25.1121C32.8499 25.0982 30.5309 23.681 27.067 23.6658C19.7602 23.4932 15.0321 30.4613 15 37.8252C15.1651 43.492 17.2384 46.8407 19.2647 50.0859C25.6296 59.4947 28.5229 59.7907 31.464 59.9892Z" fill="#D13834"/>
<path fill-rule="evenodd" clip-rule="evenodd" d="M21.7318 42.6308C22.2349 42.4855 22.7619 42.7709 22.9089 43.2682C23.7254 46.0303 26.3584 49.3115 28.7528 51.1141C29.1698 51.428 29.2504 52.0166 28.9329 52.4287C28.6153 52.8409 28.0199 52.9205 27.6029 52.6066C24.9839 50.6349 22.0476 47.0437 21.087 43.7942C20.94 43.2969 21.2287 42.776 21.7318 42.6308Z" fill="white"/>
<path d="M25.4608 22.0172C22.288 20.5493 20.1684 16.9284 18.7588 13.7327C19.1865 13.5939 20.9432 13.367 24.8352 13.1495C28.6692 13.1662 31.0455 14.4899 31.9916 15.1507C33.9313 16.5054 35.0314 18.119 35.6282 19.1066C35.3214 19.8182 35.0502 21.0584 35.0007 21.5429C32.6697 22.8929 30.9608 23.0262 29.7271 23.0208C27.6013 23.0115 25.9816 22.3009 25.4608 22.0172Z" fill="#7DB820"/>
<path d="M22.0736 15.295C26.7647 16.8165 30.2716 17.8637 33.5813 20.5986C29.6019 19.0803 26.4262 18.269 22.0736 15.295Z" fill="#537918"/>
<path fill-rule="evenodd" clip-rule="evenodd" d="M41.8 12.4143C42.2499 12.9201 42.1999 13.6906 41.6883 14.1354C38.9905 16.4802 37.2377 19.9907 37.2206 23.8978L37.2153 25.1173L34.7479 25.1065L34.7532 23.887C34.7734 19.2577 36.8501 15.0926 40.0588 12.3037C40.5704 11.8589 41.35 11.9085 41.8 12.4143Z" fill="#543429"/>
</svg>
