<svg width="72" height="72" viewBox="0 0 72 72" fill="none" xmlns="http://www.w3.org/2000/svg">
<rect width="72" height="72" fill="#F9E5B8"/>
<path d="M60 36C60 49.2548 49.2548 60 36 60C22.7452 60 12 49.2548 12 36C12 22.7452 22.7452 12 36 12C49.2548 12 60 22.7452 60 36Z" fill="#EDAA1D"/>
<path fill-rule="evenodd" clip-rule="evenodd" d="M60 36C60 49.2548 49.2548 60 36 60C22.7452 60 12 49.2548 12 36C12 22.7452 22.7452 12 36 12C49.2548 12 60 22.7452 60 36ZM58.4464 32.9497C57.837 28.4225 55.8901 24.3193 53.0164 21.0509C52.9994 21.0556 52.9819 21.0596 52.9642 21.063C50.0609 21.6181 47.6386 22.1094 44.849 23.1261C45.2974 23.6091 45.7255 24.1132 46.1293 24.6387C47.1513 25.9687 48.08 27.4998 48.8683 29.1939C49.9044 29.1057 51.0314 29.1478 52.2626 29.3325C55.4037 29.8036 57.2954 31.3695 58.4464 32.9497ZM43.8076 22.0743C46.6688 20.9778 49.1126 20.4349 51.9205 19.8892C49.1497 17.1509 45.6761 15.1222 41.7945 14.098C41.5401 16.1202 40.701 17.6419 39.4942 18.7563C41.011 19.711 42.4771 20.8127 43.8076 22.0743ZM27.675 56.85C31.2053 56.85 33.2498 54.3445 34.6351 50.9775C35.3231 49.3056 35.8221 47.4778 36.2482 45.7512C36.3562 45.3136 36.4601 44.8795 36.5616 44.4555C36.8547 43.2317 37.1276 42.0916 37.4206 41.1911L37.4276 41.1697L37.436 41.1488C38.9155 37.4594 40.4592 34.1791 42.7159 31.9896C44.04 30.7049 45.5918 29.8112 47.4729 29.402C46.7648 27.9415 45.9479 26.6183 45.0589 25.4613C44.5711 24.8265 44.0446 24.2242 43.4871 23.6533C41.7783 24.3529 39.8984 25.2634 37.6789 26.5019C30.472 30.5235 22.9369 37.9516 18.2304 50.0466C20.4448 52.844 23.3057 55.1063 26.5875 56.6077C26.593 56.6103 26.5986 56.6128 26.6043 56.6154C26.8992 56.7469 27.4382 56.8264 27.675 56.85ZM17.2871 48.7651C22.1256 36.841 29.7011 29.4077 37.0211 25.3231C39.0553 24.1879 40.8167 23.32 42.4242 22.6346C41.1582 21.4969 39.773 20.4997 38.3448 19.6331C37.0922 20.4224 35.6309 20.8896 34.1611 21.1563C30.5713 21.8076 26.7037 21.2985 25.0819 21.085C25.0406 21.0796 25.0006 21.0743 24.9622 21.0693C21.6619 20.6364 19.7223 21.3041 18.4982 22.2201C17.3029 23.1146 16.701 24.075 16.1967 25.0682L15.8011 25.741C14.2337 28.8209 13.35 32.3073 13.35 36C13.35 40.7348 14.8028 45.1304 17.2871 48.7651ZM19.968 20.0001C21.3154 19.5904 23.0029 19.4508 25.1378 19.7307L25.2296 19.7428C26.8495 19.9557 30.542 20.4409 33.9201 19.828C35.0227 19.6279 36.067 19.3149 36.9841 18.8524C33.3878 16.9018 28.3875 14.9683 27.3188 15.1371C27.0591 15.1782 26.6417 15.336 26.4926 15.3924C26.4586 15.4052 26.4386 15.4128 26.4375 15.4125C23.7937 16.5584 21.9745 17.9895 19.968 20.0001ZM29.2955 14.3587C31.9359 15.0633 35.1636 16.2505 38.2758 18.0262C38.3134 17.9957 38.3506 17.9649 38.3874 17.9337C39.4779 17.0077 40.2639 15.6931 40.4713 13.7913C39.0258 13.5018 37.5307 13.35 36 13.35C33.6659 13.35 31.4142 13.7031 29.2955 14.3587ZM52.0624 30.6675C56.4937 31.3322 58.6137 35.1 58.6137 36.1878C58.6221 36.2213 58.6447 37.0229 58.6463 37.0875C58.5094 44.7549 54.5625 50.8175 48.6184 54.8124C52.6495 45.8948 52.1053 37.1331 49.4385 30.5096C50.2417 30.4753 51.1129 30.5251 52.0624 30.6675ZM36 58.65C33.9326 58.65 31.9299 58.373 30.027 57.8541C32.9536 56.9367 34.7208 54.3174 35.8836 51.4912C36.6113 49.7225 37.1295 47.8144 37.5589 46.0746C37.6745 45.6062 37.783 45.153 37.8871 44.7183C38.1729 43.5248 38.4252 42.4716 38.6975 41.6301C40.1776 37.9415 41.6321 34.9221 43.656 32.9585C44.8499 31.8001 46.26 30.9931 48.0428 30.6641C50.7859 37.2024 51.591 45.9416 47.2125 54.9606C46.425 56.025 46.0125 56.2125 44.925 56.8249C41.972 58.2353 39.4907 58.65 36 58.65Z" fill="#3A322B"/>
</svg>
