<svg width="72" height="72" viewBox="0 0 72 72" fill="none" xmlns="http://www.w3.org/2000/svg">
<rect width="72" height="72" fill="#BFBFBF"/>
<path fill-rule="evenodd" clip-rule="evenodd" d="M40.9598 16.992C40.9598 16.9837 40.9598 16.9754 40.9598 16.9671C40.9598 16.9594 40.9598 16.9517 40.9598 16.944H40.9596C40.9471 15.6374 40.426 14.387 39.5071 13.4621C38.577 12.5259 37.3154 12 36 12C34.6846 12 33.423 12.5259 32.4929 13.4621C31.5627 14.3983 31.0402 15.668 31.0402 16.992C31.0402 18.0743 31.4695 19.3504 31.6569 19.9005L31.6572 19.9012C31.8913 20.5847 32.1262 21.4002 32.3021 22.1556C32.4802 22.9203 32.5901 23.5914 32.5901 24C32.5901 25.3335 32.5226 26.0439 32.2308 26.8224C31.9398 27.5986 31.424 28.4513 30.4781 30.015L30.4582 30.048H30.4576C30.4401 30.0771 30.4227 30.1062 30.4053 30.1354L30.3757 30.1843L30.3761 30.1846C30.1122 30.6302 29.8645 31.0838 29.6332 31.5445L30.7639 31.0428C30.8063 30.967 30.8491 30.8914 30.8925 30.816H31.3823H40.6898H41.1075C41.144 30.8795 41.1802 30.9432 41.2161 31.007L42.3431 31.4974C42.1103 31.0363 41.861 30.5824 41.5954 30.1365L41.5957 30.1363L41.5423 30.048C40.5669 28.4347 40.0514 27.5663 39.7686 26.7794C39.4887 26.0005 39.4337 25.29 39.4337 23.952C39.4337 23.5434 39.5437 22.8723 39.7217 22.1076C39.8976 21.3522 40.1325 20.5367 40.3667 19.8532L40.3669 19.8525C40.5543 19.3025 40.948 18.0606 40.9596 16.992H40.9598ZM44.8916 33.0856L45.4975 33.5834C45.7023 33.1668 45.9211 32.7561 46.1535 32.352H56.3685C58.599 36.2304 59.5691 40.718 59.1363 45.1853L59.0224 46.3612C58.7559 49.1117 58.0726 51.8049 56.9962 54.3471L56.3243 55.9341C56.0039 56.6907 55.3067 57.2162 54.4971 57.3133C53.1217 57.3547 49.4931 57.3513 48.1165 57.3131C47.2507 57.2163 46.5035 56.6565 46.1605 55.8463L45.9312 55.3048L45.3287 55.8408L45.4585 56.1474C45.9135 57.2219 46.911 57.9633 48.0657 58.08C49.4433 58.1196 53.1741 58.1232 54.5516 58.08C55.6477 57.9617 56.5941 57.2559 57.0262 56.2352L57.6982 54.6482C58.8051 52.0338 59.5078 49.2642 59.7818 46.4358L59.8957 45.2598C60.355 40.5191 59.289 35.7562 56.8564 31.6725L56.8567 31.6723L56.8032 31.584C55.8279 29.9707 55.3124 29.1023 55.0296 28.3154C54.7497 27.5365 54.6947 26.826 54.6947 25.488C54.6947 25.0794 54.8046 24.4083 54.9827 23.6436C55.1586 22.8882 55.3935 22.0727 55.6277 21.3892L55.6279 21.3885C55.8152 20.8385 56.2089 19.5966 56.2205 18.528H56.2208C56.2208 18.5197 56.2208 18.5114 56.2207 18.5031C56.2208 18.4954 56.2208 18.4877 56.2208 18.48H56.2206C56.2081 17.1734 55.687 15.923 54.7681 14.9981C53.8379 14.0619 52.5764 13.536 51.261 13.536C49.9455 13.536 48.684 14.0619 47.7538 14.9981C46.8237 15.9343 46.3012 17.204 46.3012 18.528C46.3012 19.6103 46.7305 20.8864 46.9179 21.4365L46.9181 21.4372C47.1523 22.1207 47.3872 22.9362 47.5631 23.6916C47.7411 24.4563 47.8511 25.1274 47.8511 25.536C47.8511 26.8695 47.7836 27.5799 47.4917 28.3584C47.2008 29.1346 46.685 29.9873 45.7391 31.551L45.7191 31.584H45.7186C45.7119 31.5951 45.7053 31.6062 45.6986 31.6173L45.6831 31.6433L45.6663 31.6714L45.6367 31.7203L45.637 31.7206C45.3721 32.1678 45.1236 32.6231 44.8916 33.0856ZM26.6903 55.796L26.5043 56.2352C26.0721 57.2559 25.1257 57.9617 24.0297 58.08C22.6522 58.1232 18.9214 58.1196 17.5438 58.08C16.3891 57.9633 15.3915 57.2219 14.9366 56.1474L14.3019 54.6482C13.1949 52.0338 12.4922 49.2642 12.2182 46.4358L12.1043 45.2598C11.6468 40.5376 12.7027 35.7935 15.1151 31.7206L15.1147 31.7203L15.1443 31.6714C15.1617 31.6422 15.1792 31.6131 15.1967 31.584H15.1972L15.2172 31.551C16.163 29.9873 16.6789 29.1346 16.9698 28.3584C17.2617 27.5799 17.3292 26.8695 17.3292 25.536C17.3292 25.1274 17.2192 24.4563 17.0412 23.6916C16.8652 22.9362 16.6304 22.1207 16.3962 21.4372L16.396 21.4365C16.2086 20.8864 15.7792 19.6103 15.7792 18.528C15.7792 17.204 16.3018 15.9343 17.2319 14.9981C18.1621 14.0619 19.4236 13.536 20.739 13.536C22.0545 13.536 23.316 14.0619 24.2462 14.9981C25.1651 15.923 25.6862 17.1734 25.6986 18.48H25.6988C25.6988 18.4877 25.6988 18.4954 25.6988 18.5031C25.6988 18.5094 25.6988 18.5156 25.6988 18.5218L25.6988 18.528H25.6986C25.687 19.5966 25.2933 20.8385 25.1059 21.3885L25.1057 21.3892C24.8715 22.0727 24.6367 22.8882 24.4608 23.6436C24.2827 24.4083 24.1728 25.0794 24.1728 25.488C24.1728 26.826 24.2278 27.5365 24.5077 28.3154C24.7905 29.1023 25.3059 29.9707 26.2813 31.584L26.3347 31.6723L26.3344 31.6725C26.6178 32.1482 26.8826 32.6331 27.1286 33.1261L26.5241 33.6274C26.313 33.1957 26.0871 32.7703 25.8466 32.352H15.6315C13.401 36.2304 12.4309 40.718 12.8637 45.1853L12.9776 46.3612C13.2441 49.1117 13.9274 51.8049 15.0038 54.3472L15.6386 55.8463C15.9816 56.6565 16.7288 57.2163 17.5945 57.3131C18.9712 57.3513 22.5998 57.3547 23.9752 57.3133C24.7848 57.2162 25.482 56.6907 25.8023 55.9341L26.0894 55.2562L26.6903 55.796ZM39.1755 27.36C39.4742 28.0734 39.9413 28.8738 40.6493 30.048H31.3515C32.0617 28.8731 32.5345 28.0752 32.8381 27.36H39.1755ZM31.8032 16.992C31.8032 17.9255 32.1845 19.0812 32.3786 19.6511C32.4243 19.7845 32.47 19.9226 32.5152 20.064H39.4933C39.5436 19.9058 39.5944 19.7516 39.6452 19.6031C39.835 19.046 40.1907 17.9001 40.1967 16.9676C40.1899 15.8643 39.7216 14.8075 38.946 14.0269C38.1647 13.2405 37.105 12.7987 36 12.7987C34.895 12.7987 33.8353 13.2405 33.054 14.0269C32.2727 14.8133 31.8032 15.8799 31.8032 16.992ZM32.7471 20.832H39.2632C39.1594 21.199 39.0627 21.5721 38.9788 21.9324C38.8453 22.5056 38.74 23.0642 38.6948 23.52H33.3241C33.2764 23.0733 33.1739 22.5337 33.045 21.9804C32.9575 21.6043 32.8559 21.2144 32.7471 20.832ZM38.672 24.288H33.352C33.3441 25.2385 33.2913 25.9225 33.1076 26.592H38.9099C38.7279 25.9174 38.6799 25.235 38.672 24.288ZM17.1177 21.1871C16.9235 20.6172 16.5423 19.4615 16.5423 18.528C16.5423 17.4159 17.0117 16.3493 17.7931 15.5629C18.5744 14.7765 19.6341 14.3347 20.739 14.3347C21.844 14.3347 22.9037 14.7765 23.685 15.5629C24.4606 16.3435 24.9289 17.4003 24.9357 18.5036C24.9298 19.4361 24.574 20.582 24.3842 21.1391C24.3334 21.2876 24.2826 21.4418 24.2324 21.6H17.2543C17.209 21.4586 17.1634 21.3205 17.1177 21.1871ZM24.0022 22.368H17.4861C17.595 22.7504 17.6965 23.1403 17.7841 23.5164C17.9129 24.0697 18.0155 24.6093 18.0631 25.056H23.4338C23.4791 24.6002 23.5843 24.0416 23.7178 23.4684C23.8017 23.1081 23.8985 22.735 24.0022 22.368ZM18.0911 25.824H23.411C23.4189 26.771 23.467 27.4534 23.6489 28.128H17.8467C18.0303 27.4585 18.0831 26.7745 18.0911 25.824ZM17.5771 28.896C17.2736 29.6112 16.8007 30.4091 16.0906 31.584H25.3883C24.6803 30.4098 24.2133 29.6094 23.9146 28.896H17.5771ZM47.6396 21.1871C47.4455 20.6172 47.0642 19.4615 47.0642 18.528C47.0642 17.4159 47.5337 16.3493 48.315 15.5629C49.0963 14.7765 50.156 14.3347 51.261 14.3347C52.3659 14.3347 53.4256 14.7765 54.2069 15.5629C54.9825 16.3435 55.4508 17.4003 55.4577 18.5036C55.4517 19.4361 55.096 20.582 54.9062 21.1391C54.8553 21.2876 54.8045 21.4418 54.7543 21.6H47.7762C47.731 21.4586 47.6853 21.3205 47.6396 21.1871ZM54.5241 22.368H48.008C48.1169 22.7504 48.2184 23.1403 48.306 23.5164C48.4349 24.0697 48.5374 24.6093 48.5851 25.056H53.9558C54.001 24.6002 54.1063 24.0416 54.2398 23.4684C54.3237 23.1081 54.4204 22.735 54.5241 22.368ZM48.613 25.824H53.9329C53.9409 26.771 53.9889 27.4534 54.1709 28.128H48.3686C48.5522 27.4585 48.605 26.7745 48.613 25.824ZM48.0991 28.896C47.7955 29.6112 47.3226 30.4091 46.6125 31.584H55.9103C55.2023 30.4098 54.7352 29.6094 54.4365 28.896H48.0991Z" fill="#3A322B"/>
<path d="M26.5241 33.6274C26.313 33.1957 26.0871 32.7703 25.8466 32.352H15.6315C13.401 36.2304 12.4309 40.718 12.8637 45.1853L12.9776 46.3612C13.2441 49.1117 13.9274 51.8049 15.0038 54.3472L15.6386 55.8463C15.9816 56.6565 16.7288 57.2163 17.5945 57.3131C18.9712 57.3513 22.5998 57.3547 23.9752 57.3133C24.7848 57.2162 25.482 56.6907 25.8023 55.9341L26.0894 55.2562C23.2871 52.5955 21.5381 48.8233 21.5381 44.64C21.5381 40.2443 23.4692 36.3026 26.5241 33.6274Z" fill="white"/>
<path d="M18.0911 25.824H23.411C23.4189 26.771 23.467 27.4534 23.6489 28.128H17.8467C18.0303 27.4585 18.0831 26.7745 18.0911 25.824Z" fill="white"/>
<path d="M17.1177 21.1871C16.9235 20.6172 16.5423 19.4615 16.5423 18.528C16.5423 17.4159 17.0117 16.3493 17.7931 15.5629C18.5744 14.7765 19.6341 14.3347 20.739 14.3347C21.844 14.3347 22.9037 14.7765 23.685 15.5629C24.4606 16.3435 24.9289 17.4003 24.9357 18.5036C24.9298 19.4361 24.574 20.582 24.3842 21.1391C24.3334 21.2876 24.2826 21.4418 24.2324 21.6H17.2543C17.209 21.4586 17.1634 21.3205 17.1177 21.1871Z" fill="white"/>
<path d="M17.5771 28.896C17.2736 29.6112 16.8007 30.4091 16.0906 31.584H25.3883C24.6803 30.4098 24.2133 29.6094 23.9146 28.896H17.5771Z" fill="#E15C63"/>
<path d="M24.0022 22.368H17.4861C17.595 22.7504 17.6965 23.1403 17.7841 23.5164C17.9129 24.0697 18.0155 24.6093 18.0631 25.056H23.4338C23.4791 24.6002 23.5843 24.0416 23.7178 23.4684C23.8017 23.1081 23.8985 22.735 24.0022 22.368Z" fill="#E15C63"/>
<path d="M32.7471 20.832H39.2632C39.1594 21.199 39.0627 21.5721 38.9788 21.9324C38.8453 22.5056 38.74 23.0642 38.6948 23.52H33.3241C33.2764 23.0733 33.1739 22.5337 33.045 21.9804C32.9575 21.6043 32.8559 21.2144 32.7471 20.832Z" fill="#E15C63"/>
<path d="M39.1755 27.36C39.4742 28.0734 39.9413 28.8738 40.6493 30.048H31.3515C32.0617 28.8731 32.5345 28.0752 32.8381 27.36H39.1755Z" fill="#E15C63"/>
<path d="M31.8032 16.992C31.8032 17.9255 32.1845 19.0812 32.3786 19.6511C32.4243 19.7845 32.47 19.9226 32.5152 20.064H39.4933C39.5436 19.9058 39.5944 19.7516 39.6452 19.6031C39.835 19.046 40.1907 17.9001 40.1967 16.9676C40.1899 15.8643 39.7216 14.8075 38.946 14.0269C38.1647 13.2405 37.105 12.7987 36 12.7987C34.895 12.7987 33.8353 13.2405 33.054 14.0269C32.2727 14.8133 31.8032 15.8799 31.8032 16.992Z" fill="white"/>
<path d="M38.672 24.288H33.352C33.3441 25.2385 33.2913 25.9225 33.1076 26.592H38.9099C38.7279 25.9174 38.6799 25.235 38.672 24.288Z" fill="white"/>
<path d="M47.6396 21.1871C47.4455 20.6172 47.0642 19.4615 47.0642 18.528C47.0642 17.4159 47.5337 16.3493 48.315 15.5629C49.0963 14.7765 50.156 14.3347 51.261 14.3347C52.3659 14.3347 53.4256 14.7765 54.2069 15.5629C54.9825 16.3435 55.4508 17.4003 55.4577 18.5036C55.4517 19.4361 55.096 20.582 54.9062 21.1391C54.8553 21.2876 54.8045 21.4418 54.7543 21.6H47.7762C47.731 21.4586 47.6853 21.3205 47.6396 21.1871Z" fill="white"/>
<path d="M54.5241 22.368H48.008C48.1169 22.7504 48.2184 23.1403 48.306 23.5164C48.4349 24.0697 48.5374 24.6093 48.5851 25.056H53.9558C54.001 24.6002 54.1063 24.0416 54.2398 23.4684C54.3237 23.1081 54.4204 22.735 54.5241 22.368Z" fill="#E15C63"/>
<path d="M45.9312 55.3048L46.1605 55.8463C46.5035 56.6565 47.2507 57.2163 48.1165 57.3131C49.4931 57.3513 53.1217 57.3547 54.4971 57.3133C55.3067 57.2162 56.0039 56.6907 56.3243 55.9341L56.9962 54.3471C58.0726 51.8049 58.7559 49.1117 59.0224 46.3612L59.1363 45.1853C59.5691 40.718 58.599 36.2304 56.3685 32.352H46.1535C45.9211 32.7561 45.7023 33.1668 45.4975 33.5834C48.5816 36.2593 50.5339 40.2202 50.5339 44.64C50.5339 48.8489 48.7635 52.6416 45.9312 55.3048Z" fill="white"/>
<path d="M48.0991 28.896C47.7955 29.6112 47.3226 30.4091 46.6125 31.584H55.9103C55.2023 30.4098 54.7352 29.6094 54.4365 28.896H48.0991Z" fill="#E15C63"/>
<path d="M48.613 25.824H53.9329C53.9409 26.771 53.9889 27.4534 54.1709 28.128H48.3686C48.5522 27.4585 48.605 26.7745 48.613 25.824Z" fill="white"/>
<path d="M51.297 44.64C51.297 53.1231 44.4644 60 36.036 60C27.6076 60 20.7751 53.1231 20.7751 44.64C20.7751 36.1569 27.6076 29.28 36.036 29.28C44.4644 29.28 51.297 36.1569 51.297 44.64Z" fill="#F68742"/>
<path fill-rule="evenodd" clip-rule="evenodd" d="M36.036 59.232C44.043 59.232 50.5339 52.6989 50.5339 44.64C50.5339 36.5811 44.043 30.048 36.036 30.048C28.029 30.048 21.5381 36.5811 21.5381 44.64C21.5381 52.6989 28.029 59.232 36.036 59.232ZM36.036 60C44.4644 60 51.297 53.1231 51.297 44.64C51.297 36.1569 44.4644 29.28 36.036 29.28C27.6076 29.28 20.7751 36.1569 20.7751 44.64C20.7751 53.1231 27.6076 60 36.036 60Z" fill="#3A322B"/>
<path d="M42.9035 41.952C42.9035 43.0124 42.0494 43.872 40.9958 43.872C39.9423 43.872 39.0882 43.0124 39.0882 41.952C39.0882 40.8916 39.9423 40.032 40.9958 40.032C42.0494 40.032 42.9035 40.8916 42.9035 41.952Z" fill="#6D6E71"/>
<path fill-rule="evenodd" clip-rule="evenodd" d="M40.9958 43.104C41.628 43.104 42.1404 42.5882 42.1404 41.952C42.1404 41.3158 41.628 40.8 40.9958 40.8C40.3637 40.8 39.8513 41.3158 39.8513 41.952C39.8513 42.5882 40.3637 43.104 40.9958 43.104ZM40.9958 43.872C42.0494 43.872 42.9035 43.0124 42.9035 41.952C42.9035 40.8916 42.0494 40.032 40.9958 40.032C39.9423 40.032 39.0882 40.8916 39.0882 41.952C39.0882 43.0124 39.9423 43.872 40.9958 43.872Z" fill="#3A322B"/>
<path d="M47.4817 43.104C47.4817 44.1644 46.6277 45.024 45.5741 45.024C44.5206 45.024 43.6665 44.1644 43.6665 43.104C43.6665 42.0436 44.5206 41.184 45.5741 41.184C46.6277 41.184 47.4817 42.0436 47.4817 43.104Z" fill="#6D6E71"/>
<path fill-rule="evenodd" clip-rule="evenodd" d="M45.5741 44.256C46.2063 44.256 46.7187 43.7402 46.7187 43.104C46.7187 42.4678 46.2063 41.952 45.5741 41.952C44.942 41.952 44.4296 42.4678 44.4296 43.104C44.4296 43.7402 44.942 44.256 45.5741 44.256ZM45.5741 45.024C46.6277 45.024 47.4817 44.1644 47.4817 43.104C47.4817 42.0436 46.6277 41.184 45.5741 41.184C44.5206 41.184 43.6665 42.0436 43.6665 43.104C43.6665 44.1644 44.5206 45.024 45.5741 45.024Z" fill="#3A322B"/>
<path d="M45.9557 38.112C45.9557 39.1724 45.1016 40.032 44.048 40.032C42.9945 40.032 42.1404 39.1724 42.1404 38.112C42.1404 37.0516 42.9945 36.192 44.048 36.192C45.1016 36.192 45.9557 37.0516 45.9557 38.112Z" fill="#6D6E71"/>
<path fill-rule="evenodd" clip-rule="evenodd" d="M44.048 39.264C44.6802 39.264 45.1926 38.7482 45.1926 38.112C45.1926 37.4758 44.6802 36.96 44.048 36.96C43.4159 36.96 42.9035 37.4758 42.9035 38.112C42.9035 38.7482 43.4159 39.264 44.048 39.264ZM44.048 40.032C45.1016 40.032 45.9557 39.1724 45.9557 38.112C45.9557 37.0516 45.1016 36.192 44.048 36.192C42.9945 36.192 42.1404 37.0516 42.1404 38.112C42.1404 39.1724 42.9945 40.032 44.048 40.032Z" fill="#3A322B"/>
</svg>
