<svg width="72" height="72" viewBox="0 0 72 72" fill="none" xmlns="http://www.w3.org/2000/svg">
<rect width="72" height="72" fill="#F0D5C1"/>
<path d="M57.1948 32.2827C57.4086 32.1712 57.6414 32.088 57.8824 32.0806C60.1726 32.0105 59.9924 34.2639 59.9988 35.7878C60.0165 40.0154 59.0146 43.9412 57.2224 47.2969C54.8689 51.7038 51.1976 55.2673 46.7204 57.4908C42.2431 59.7143 37.1829 60.4869 32.2451 59.7011C27.3074 58.9152 22.7381 56.6099 19.1742 53.1067C15.6103 49.6034 13.2293 45.0766 12.3632 40.1573C11.4971 35.2381 12.189 30.1714 14.3424 25.6636C16.4958 21.1558 20.0035 17.4315 24.3765 15.0097C27.6784 13.1812 31.9897 12 36.5414 12C38.2242 12 39.0939 12.1894 39.3504 13.4306C39.3977 13.6597 39.3706 13.8981 39.3124 14.1247C38.3034 18.0533 39.5911 18.1871 41.2338 19.8281C41.8438 20.4375 42.0785 20.5781 41.7835 22.0312C40.7646 25.875 41.5623 27.9375 42.8762 29.2031C44.7381 31.0631 47.979 30.7128 50.1864 30.2972C50.9334 30.1565 51.6876 30.4641 52.1321 31.0807C53.515 32.9993 54.5184 33.6788 57.1948 32.2827Z" fill="#CC7A3D"/>
<path fill-rule="evenodd" clip-rule="evenodd" d="M55.5685 46.4136C57.2105 43.3391 58.1402 39.7205 58.1238 35.7956C58.1232 35.6555 58.1238 35.5272 58.1243 35.4058C58.1255 35.1358 58.1265 34.8999 58.1145 34.6432C58.0996 34.3234 58.0671 34.1055 58.0278 33.9629C56.5773 34.7147 55.0983 35.1732 53.6229 34.7156C52.2088 34.277 51.2957 33.127 50.611 32.1771C50.5976 32.1584 50.5828 32.1485 50.5702 32.1434C50.5581 32.1385 50.5467 32.1373 50.5334 32.1398C49.3817 32.3566 47.8313 32.5839 46.2699 32.4739C44.7185 32.3645 42.9362 31.9055 41.5633 30.5419C40.6601 29.6678 39.9348 28.5069 39.6181 26.96C39.3099 25.4545 39.4103 23.6913 39.9561 21.6077C39.9852 21.4608 40.004 21.3477 40.016 21.2612L40.0039 21.2493C39.9751 21.2207 39.9422 21.1881 39.9087 21.1546C39.6696 20.9158 39.4763 20.7472 39.2546 20.5539C39.1296 20.4448 38.9955 20.3279 38.8391 20.186C38.4628 19.8448 37.9901 19.3823 37.6357 18.7376C36.9061 17.4106 36.9578 15.8646 37.4331 13.9109C37.2179 13.8865 36.9334 13.875 36.5414 13.875C32.2977 13.875 28.3002 14.9801 25.2849 16.65C21.253 18.8828 18.0194 22.3164 16.0343 26.4718C14.0492 30.6272 13.4114 35.2977 14.2098 39.8322C15.0082 44.3668 17.203 48.5398 20.4886 51.7695C23.7743 54.9993 27.987 57.1248 32.5399 57.8494C37.0927 58.574 41.7583 57.8615 45.8864 55.8115C50.0144 53.7614 53.3989 50.476 55.5685 46.4136ZM41.7835 22.0312C42.0637 20.6508 41.866 20.4548 41.3225 19.9163C41.2939 19.8879 41.2643 19.8586 41.2338 19.8281C40.953 19.5476 40.6825 19.3111 40.4321 19.0921C39.2179 18.0305 38.4759 17.3816 39.3124 14.1247C39.3706 13.8981 39.3977 13.6597 39.3504 13.4306C39.0939 12.1894 38.2242 12 36.5414 12C31.9897 12 27.6784 13.1812 24.3765 15.0097C20.0035 17.4315 16.4958 21.1558 14.3424 25.6636C12.189 30.1714 11.4971 35.2381 12.3632 40.1573C13.2293 45.0766 15.6103 49.6034 19.1742 53.1067C22.7381 56.6099 27.3074 58.9152 32.2451 59.7011C37.1829 60.4869 42.2431 59.7143 46.7204 57.4908C51.1976 55.2673 54.8689 51.7038 57.2224 47.2969C59.0146 43.9412 60.0165 40.0154 59.9988 35.7878C59.9984 35.6821 59.9988 35.5728 59.9993 35.4611C60.0055 33.9624 60.0137 32.0154 57.8824 32.0806C57.6414 32.088 57.4086 32.1712 57.1948 32.2827C54.5184 33.6788 53.515 32.9993 52.1321 31.0807C51.6876 30.4641 50.9334 30.1565 50.1864 30.2972C47.979 30.7128 44.7381 31.0631 42.8762 29.2031C41.5623 27.9375 40.7646 25.875 41.7835 22.0312ZM58.1443 33.9683C58.1442 33.9685 58.1418 33.9679 58.1376 33.9663C58.1422 33.9675 58.1443 33.9682 58.1443 33.9683Z" fill="#773E15"/>
<path d="M52.2188 15.1875C52.2188 16.4301 51.2114 17.4375 49.9688 17.4375C48.7261 17.4375 47.7188 16.4301 47.7188 15.1875C47.7188 13.9449 48.7261 12.9375 49.9688 12.9375C51.2114 12.9375 52.2188 13.9449 52.2188 15.1875Z" fill="#773E15"/>
<path d="M50.3438 23.5312C50.3438 24.6186 49.4623 25.5 48.375 25.5C47.2877 25.5 46.4063 24.6186 46.4063 23.5312C46.4063 22.4439 47.2877 21.5625 48.375 21.5625C49.4623 21.5625 50.3438 22.4439 50.3438 23.5312Z" fill="#773E15"/>
<path d="M59.4375 26.4375C59.4375 27.1624 58.8499 27.75 58.125 27.75C57.4001 27.75 56.8125 27.1624 56.8125 26.4375C56.8125 25.7126 57.4001 25.125 58.125 25.125C58.8499 25.125 59.4375 25.7126 59.4375 26.4375Z" fill="#773E15"/>
<path d="M55.5938 39.6094C55.5938 40.3084 55.0271 40.875 54.3281 40.875C53.6291 40.875 53.0625 40.3084 53.0625 39.6094C53.0625 38.9104 53.6291 38.3437 54.3281 38.3437C55.0271 38.3437 55.5938 38.9104 55.5938 39.6094Z" fill="#965323"/>
<path d="M49.9688 40.9219C49.9688 41.6209 49.4021 42.1875 48.7031 42.1875C48.0041 42.1875 47.4375 41.6209 47.4375 40.9219C47.4375 40.2229 48.0041 39.6562 48.7031 39.6562C49.4021 39.6562 49.9688 40.2229 49.9688 40.9219Z" fill="#965323"/>
<path d="M27.0938 22.5C27.0938 23.2249 26.5061 23.8125 25.7813 23.8125C25.0564 23.8125 24.4688 23.2249 24.4688 22.5C24.4688 21.7751 25.0564 21.1875 25.7813 21.1875C26.5061 21.1875 27.0938 21.7751 27.0938 22.5Z" fill="#965323"/>
<path d="M33.9375 26.6719C33.9375 27.6815 33.119 28.5 32.1094 28.5C31.0997 28.5 30.2813 27.6815 30.2813 26.6719C30.2813 25.6622 31.0997 24.8437 32.1094 24.8437C33.119 24.8437 33.9375 25.6622 33.9375 26.6719Z" fill="#965323"/>
<path d="M37.2188 36.6562C37.2188 37.6918 36.3793 38.5312 35.3438 38.5312C34.3082 38.5312 33.4688 37.6918 33.4688 36.6562C33.4688 35.6207 34.3082 34.7812 35.3438 34.7812C36.3793 34.7812 37.2188 35.6207 37.2188 36.6562Z" fill="#965323"/>
<path d="M29.3438 44.9062C29.3438 46.1489 28.3364 47.1562 27.0938 47.1562C25.8511 47.1562 24.8438 46.1489 24.8438 44.9062C24.8438 43.6636 25.8511 42.6562 27.0938 42.6562C28.3364 42.6562 29.3438 43.6636 29.3438 44.9062Z" fill="#965323"/>
<path d="M44.0625 37.7812C44.0625 38.3508 43.6008 38.8125 43.0313 38.8125C42.4617 38.8125 42 38.3508 42 37.7812C42 37.2117 42.4617 36.75 43.0313 36.75C43.6008 36.75 44.0625 37.2117 44.0625 37.7812Z" fill="#965323"/>
<path d="M45 46.4531C45 48.1359 43.6359 49.5 41.9531 49.5C40.2704 49.5 38.9063 48.1359 38.9063 46.4531C38.9063 44.7704 40.2704 43.4062 41.9531 43.4062C43.6359 43.4062 45 44.7704 45 46.4531Z" fill="#965323"/>
<path d="M28.2188 33.8437C28.2188 35.6559 26.7497 37.125 24.9375 37.125C23.1253 37.125 21.6563 35.6559 21.6563 33.8437C21.6563 32.0316 23.1253 30.5625 24.9375 30.5625C26.7497 30.5625 28.2188 32.0316 28.2188 33.8437Z" fill="#965323"/>
</svg>
