<svg width="72" height="72" viewBox="0 0 72 72" fill="none" xmlns="http://www.w3.org/2000/svg">
<rect width="72" height="72" fill="#E3F5D6"/>
<path d="M33.8164 25.7109C32.562 25.7229 20.4465 25.4931 19.6641 12.1658C19.6612 12.1169 19.6961 12.0719 19.7463 12.0661C24.54 11.5064 32.9339 14.4369 33.8532 23.359C33.9312 22.4349 34.0903 21.517 34.3522 20.6297C34.9025 18.7649 35.9162 17.0068 37.6055 15.6397C39.2943 14.273 41.5691 13.3694 44.5167 13.0675C45.2336 12.994 45.8763 13.4976 45.9521 14.1923C46.0279 14.887 45.5081 15.5097 44.7912 15.5831C42.2516 15.8433 40.4954 16.5969 39.279 17.5813C38.063 18.5653 37.2969 19.8522 36.8622 21.3252C35.9765 24.3264 36.507 27.9759 37.3503 30.7903C37.5513 31.4612 37.153 32.1629 36.4606 32.3576C35.7683 32.5524 35.0441 32.1665 34.8431 31.4956C34.3465 29.8383 33.9171 27.8125 33.8164 25.7109Z" fill="#5B2C06"/>
<path d="M22.5598 14.4957C23.4618 15.8035 25.2999 17.9498 27.201 19.7126C29.0699 21.4455 30.9237 22.617 31.7939 23.3964C31.4346 22.7782 29.7181 20.4323 27.7812 18.5883C26.3308 17.2074 24.5903 16.246 22.5598 14.4957Z" fill="white"/>
<path d="M29.7634 43.1355C29.7634 46.5506 26.9062 49.3191 23.3817 49.3191C19.8572 49.3191 17 46.5506 17 43.1355C17 39.7204 19.8572 36.9518 23.3817 36.9518C26.9062 36.9518 29.7634 39.7204 29.7634 43.1355Z" fill="#6EC030"/>
<path fill-rule="evenodd" clip-rule="evenodd" d="M20.0888 41.1616C20.381 40.8226 20.7118 40.6905 20.9028 40.7C21.0628 40.708 21.1992 40.5887 21.2074 40.4337C21.2156 40.2787 21.0925 40.1466 20.9326 40.1386C20.4951 40.1169 20.0041 40.3829 19.6435 40.8013C19.2721 41.2323 19.0058 41.8578 19.0324 42.6304C19.0377 42.7856 19.1718 42.9072 19.3319 42.902C19.4921 42.8968 19.6175 42.7668 19.6122 42.6117C19.5904 41.9789 19.8076 41.4879 20.0888 41.1616Z" fill="white"/>
<path d="M17.3384 41.6364C17.6768 45.6652 20.1425 47.9606 23.4784 47.9606C26.7176 47.9606 28.7481 45.9931 29.4249 43.604C29.5216 46.1336 26.6692 49.2723 23.4784 49.2723C19.8885 49.2723 16.2265 46.5084 17.3384 41.6364Z" fill="#4DA900"/>
<path d="M35.855 54.0037C35.855 57.3154 33.0844 60 29.6667 60C26.249 60 23.4784 57.3154 23.4784 54.0037C23.4784 50.6921 26.249 48.0075 29.6667 48.0075C33.0844 48.0075 35.855 50.6921 35.855 54.0037Z" fill="#6EC030"/>
<path d="M23.8168 52.2704C23.8168 56.2523 26.3884 58.6415 29.7243 58.6415C32.9635 58.6415 34.743 57.1893 35.6616 54.8938C35.7583 57.4235 32.9151 59.9532 29.7243 59.9532C25.9924 60.2811 22.3664 56.1118 23.8168 52.2704Z" fill="#4DA900"/>
<path d="M48.8117 53.3479C48.8117 56.9183 45.8247 59.8126 42.1399 59.8126C38.4552 59.8126 35.4682 56.9183 35.4682 53.3479C35.4682 49.7775 38.4552 46.8832 42.1399 46.8832C45.8247 46.8832 48.8117 49.7775 48.8117 53.3479Z" fill="#6EC030"/>
<path d="M35.9033 51.4272C35.6616 55.2686 38.7537 58.3136 42.0895 58.3136C45.3287 58.3136 47.2163 57.0956 48.6183 54.3785C48.3766 57.0956 45.6692 59.8126 42.0895 59.8126C37.4504 59.4847 34.6463 55.6433 35.9033 51.4272Z" fill="#4DA900"/>
<path d="M42.2366 43.0418C42.2366 46.4052 39.4228 49.1318 35.9517 49.1318C32.4806 49.1318 29.6667 46.4052 29.6667 43.0418C29.6667 39.6784 32.4806 36.9518 35.9517 36.9518C39.4228 36.9518 42.2366 39.6784 42.2366 43.0418Z" fill="#6EC030"/>
<path d="M30.1406 41.2617C29.915 44.8462 32.8004 47.875 35.9132 47.875C38.9359 47.875 40.7939 46.5511 42.1022 44.0156C41.8767 46.5511 39.2536 49.2739 35.9132 49.2739C31.5842 48.9679 28.9676 45.1959 30.1406 41.2617Z" fill="#4DA900"/>
<path d="M55 42.386C55 45.8011 52.1428 48.5696 48.6183 48.5696C45.0938 48.5696 42.2366 45.8011 42.2366 42.386C42.2366 38.9708 45.0938 36.2023 48.6183 36.2023C52.1428 36.2023 55 38.9708 55 42.386Z" fill="#6EC030"/>
<path fill-rule="evenodd" clip-rule="evenodd" d="M51.7678 39.8499C51.4757 39.5109 51.1448 39.3788 50.9538 39.3883C50.7938 39.3963 50.6574 39.2771 50.6492 39.122C50.641 38.967 50.7641 38.8349 50.9241 38.8269C51.3615 38.8052 51.8526 39.0713 52.2131 39.4896C52.5846 39.9206 52.8509 40.5461 52.8243 41.3187C52.8189 41.4739 52.6848 41.5955 52.5247 41.5903C52.3646 41.5851 52.2391 41.4552 52.2444 41.3C52.2662 40.6672 52.049 40.1763 51.7678 39.8499Z" fill="white"/>
<path d="M42.4393 40.8869C42.7777 44.9156 45.3401 47.3048 48.676 47.3048C51.9151 47.3048 53.9847 45.0562 54.4291 43.3229C54.4291 45.8057 51.8668 48.6165 48.676 48.6165C45.0861 48.6165 41.3274 45.7589 42.4393 40.8869Z" fill="#4DA900"/>
<path d="M35.7583 32.7357C35.7583 35.9956 33.031 38.6383 29.6667 38.6383C26.3024 38.6383 23.5751 35.9956 23.5751 32.7357C23.5751 29.4758 26.3024 26.8331 29.6667 26.8331C33.031 26.8331 35.7583 29.4758 35.7583 32.7357Z" fill="#6EC030"/>
<path fill-rule="evenodd" clip-rule="evenodd" d="M26.5672 30.3871C26.8593 30.0481 27.1902 29.916 27.3812 29.9255C27.5412 29.9334 27.6776 29.8142 27.6858 29.6592C27.694 29.5041 27.5709 29.372 27.4109 29.3641C26.9735 29.3423 26.4824 29.6084 26.1219 30.0268C25.7504 30.4578 25.4842 31.0833 25.5107 31.8559C25.5161 32.011 25.6502 32.1326 25.8103 32.1274C25.9704 32.1223 26.0959 31.9923 26.0906 31.8372C26.0688 31.2044 26.286 30.7134 26.5672 30.3871Z" fill="white"/>
<path d="M23.8556 31.0493C23.63 34.6338 26.5154 37.2878 29.6282 37.2878C32.6509 37.2878 34.4016 36.1612 35.7099 33.6258C35.4844 36.1612 32.9686 38.6867 29.6282 38.6867C25.2992 38.3807 22.6826 34.9835 23.8556 31.0493Z" fill="#4DA900"/>
<path d="M48.1349 31.9862C48.1349 35.3496 45.321 38.0761 41.8499 38.0761C38.3788 38.0761 35.5649 35.3496 35.5649 31.9862C35.5649 28.6228 38.3788 25.8962 41.8499 25.8962C45.321 25.8962 48.1349 28.6228 48.1349 31.9862Z" fill="#6EC030"/>
<path fill-rule="evenodd" clip-rule="evenodd" d="M45.2894 28.934C44.9973 28.595 44.6665 28.4629 44.4754 28.4724C44.3154 28.4803 44.1791 28.3611 44.1709 28.2061C44.1627 28.051 44.2857 27.9189 44.4457 27.911C44.8832 27.8892 45.3742 28.1553 45.7347 28.5737C46.1062 29.0047 46.3725 29.6302 46.3459 30.4028C46.3406 30.5579 46.2064 30.6795 46.0463 30.6743C45.8862 30.6692 45.7607 30.5392 45.7661 30.3841C45.7878 29.7513 45.5707 29.2603 45.2894 28.934Z" fill="white"/>
<path d="M35.8454 30.4871C35.8049 33.9069 38.6019 36.7257 41.7148 36.7257C44.7374 36.7257 46.8847 35.5465 48.0865 32.7826C47.7964 35.4996 45.0551 38.1245 41.7148 38.1245C37.3857 37.8185 34.9847 34.3753 35.8454 30.4871Z" fill="#4DA900"/>
</svg>
