<svg xmlns="http://www.w3.org/2000/svg" viewBox="0 0 64 64" width="64" height="64">
  <path fill="#dd3c49" d="M0 3C0 1.34315 1.34315 0 3 0H27C28.6569 0 30 1.34315 30 3V27C30 28.6569 28.6569 30 27 30H3C1.34315 30 0 28.6569 0 27V3Z"/>
  <path fill="white" d="M24 14.5C24 19.1944 20.1944 23 15.5 23C10.8056 23 7 19.1944 7 14.5C7 9.80558 10.8056 6 15.5 6C20.1944 6 24 9.80558 24 14.5Z"/>
  <path fill="#2B9D44" d="M0 37C0 35.3431 1.34315 34 3 34H27C28.6569 34 30 35.3431 30 37V61C30 62.6569 28.6569 64 27 64H3C1.34315 64 0 62.6569 0 61V37Z"/>
  <path fill="white" d="M15 40L23.5595 46.2188L20.2901 56.2812H9.70993L6.44049 46.2188L15 40Z"/>
  <path fill="#2B749D" d="M34 3C34 1.34315 35.3431 0 37 0H61C62.6569 0 64 1.34315 64 3V27C64 28.6569 62.6569 30 61 30H37C35.3431 30 34 28.6569 34 27V3Z"/>
  <path fill="white" d="M49 7L57.6603 21.25H40.3397L49 7Z"/>
  <path fill="#C4389D" d="M34 37C34 35.3431 35.3431 34 37 34H61C62.6569 34 64 35.3431 64 37V61C64 62.6569 62.6569 64 61 64H37C35.3431 64 34 62.6569 34 61V37Z"/>
  <path fill="white" d="M49 39L51.2451 45.5643H58.5106L52.6327 49.6213L54.8779 56.1857L49 52.1287L43.1221 56.1857L45.3673 49.6213L39.4894 45.5643H46.7549L49 39Z"/>
</svg>