<svg width="72" height="72" viewBox="0 0 72 72" fill="none" xmlns="http://www.w3.org/2000/svg">
<rect width="72" height="72" fill="#DBF1DA"/>
<path d="M33.1 39.3517L34.4331 38.3517C33.2313 33.6948 33.7132 30.5277 34.1045 29.5262L47.2019 24.3623L35.2781 31.2162C40.5358 36.427 48.2816 34.1291 52.3658 31.4509C56.5347 28.8722 59.4445 22.2014 59.9784 20.084C60.0515 19.7943 59.9356 19.5034 59.6833 19.3436C56.9789 17.6305 48.7736 16.6051 44.7608 17.0859C35.6724 18.175 33.1186 25.0508 33.5411 27.3667L33.0247 27.6954L32.6022 27.3667C33.2782 21.2452 28.2834 18.4473 25.7484 17.4615C21.2751 15.7219 14.9177 15.8074 12.5759 16.3313C12.189 16.4178 11.9642 16.7876 12.0047 17.182C12.5443 22.4455 14.761 25.9147 15.8431 27.132C21.2511 33.385 28.5807 32.2333 30.4428 30.4181L21.8989 22.8131L31.2408 28.869C32.1422 32.6996 33.5225 37.7869 33.1 39.3517Z" fill="#338032"/>
<path d="M55 50C55.9112 50 57.6529 53.7366 54.7484 55.9673C54.1448 56.4309 53.3669 56.5714 52.6058 56.5714H21.7566C20.1391 56.5714 18.5126 55.8286 17.9409 54.3155C16.0188 49.2289 21.1977 46.622 21.9811 46.567C21.9811 44.539 23.499 42.8584 24.2814 42.295C26.7225 40.605 29.3984 41.2936 30.4781 41.9664C30.1025 40.8398 30.0556 39.9009 30.3842 39.2437C31.3231 37.6663 33.1852 37.8979 33.952 38.2109C33.9989 37.4598 35.8767 37.0373 36.8625 38.0231C38.4586 38.0231 38.8342 39.3376 38.6933 40.0417C42.0733 38.0231 43.998 38.7742 44.89 39.2437C47.0025 40.1356 47.4719 42.6706 47.1903 43.9381C47.8944 43.4217 49.3966 43.5222 50.1947 43.7973C51.6693 44.3055 52.5419 45.7689 52.4011 47.412C53.0583 47.412 55 48 55 50Z" fill="#432A16"/>
</svg>
