<svg width="72" height="72" viewBox="0 0 72 72" fill="none" xmlns="http://www.w3.org/2000/svg">
<rect width="72" height="72" fill="#FDE0B5"/>
<path fill-rule="evenodd" clip-rule="evenodd" d="M40.1684 12.1401C40.5323 11.8953 41.03 11.9755 41.2926 12.3475C42.1963 13.6274 43.25 15.7758 43.6978 18.7268C45.3578 17.5023 47.405 16.6223 49.8629 16.3736C50.2863 16.3308 50.6831 16.6233 50.7575 17.0632C51.0176 18.5998 51.044 20.9715 50.2011 23.7912C52.2208 23.3897 54.4505 23.4698 56.7911 24.305C57.1927 24.4483 57.4308 24.884 57.3156 25.3147C56.9102 26.8303 55.9381 29.0119 53.9745 31.2215C55.9913 31.7542 57.9919 32.8256 59.7605 34.6459C60.0598 34.9538 60.0861 35.4517 59.797 35.7874C58.7874 36.96 56.9931 38.4733 54.3097 39.5812C55.8729 40.9555 57.1914 42.7985 57.9892 45.2001C58.1255 45.6104 57.9347 46.0695 57.5303 46.2423C56.1135 46.8477 53.8396 47.4089 50.9382 47.2023C51.7817 49.1183 52.2097 51.3528 51.9358 53.8687C51.8889 54.2992 51.5253 54.6333 51.0871 54.6159C49.5503 54.5551 47.2539 54.0851 44.7076 52.6472C44.6832 54.7593 44.1447 56.984 42.8428 59.1613C42.6216 59.5312 42.1533 59.6777 41.7633 59.4734C40.3953 58.7572 38.5084 57.3427 36.7972 54.9427C35.8642 56.7927 34.4357 58.5145 32.3646 59.8665C32.0064 60.1003 31.5225 60.023 31.2599 59.6655C30.3354 58.4066 29.2439 56.2821 28.7423 53.3443C27.111 54.6616 25.0672 55.6419 22.5759 55.9837C22.1541 56.0415 21.7476 55.7633 21.6581 55.3264C21.3442 53.7936 21.2369 51.4109 21.9928 48.547C19.9871 48.9785 17.7654 48.9349 15.4208 48.1448C15.0168 48.0086 14.7713 47.5772 14.8791 47.1446C15.2567 45.6286 16.1849 43.4425 18.0934 41.2085C16.0817 40.7411 14.0701 39.7442 12.2602 38.007C11.9506 37.7099 11.9072 37.2133 12.1846 36.8675C13.1607 35.6506 14.921 34.0598 17.5983 32.854C15.9678 31.5649 14.5573 29.7954 13.6376 27.4409C13.4804 27.0384 13.6473 26.5697 14.0423 26.3756C15.4418 25.6879 17.7191 24.9986 20.6756 25.0679C19.7999 23.1676 19.334 20.9417 19.5647 18.4221C19.6042 17.9909 19.962 17.6504 20.4005 17.6599C21.9286 17.6932 24.2139 18.1174 26.7654 19.4896C26.7675 17.3855 27.2496 15.2881 28.4851 12.9756C28.6934 12.5856 29.1699 12.4187 29.5734 12.6216C31.0816 13.3803 33.2189 14.9592 35.0908 17.747L35.1253 17.8075C35.1534 17.8664 35.181 17.9246 35.2082 17.982C36.1902 15.7378 37.6647 13.8245 40.1684 12.1401ZM36.4774 21.385C36.6409 22.1555 36.6812 22.8668 36.7178 23.762L35.7677 23.7646C35.7525 23.0356 35.6976 22.3068 35.5618 21.5744C35.5603 21.5673 35.5588 21.5602 35.5572 21.5531L35.5546 21.5409C35.5524 21.531 35.5502 21.5211 35.548 21.5112C35.3656 20.6918 35.0199 19.7653 34.3001 18.2546C32.5682 15.6861 30.6177 14.2295 29.2562 13.5234C28.0319 15.8492 27.6257 17.9207 27.7103 20.0339L27.7704 20.3186C27.8255 21.4906 28.0679 22.6448 28.4465 23.7217C28.7022 24.4342 29.015 25.1405 29.3587 25.6966L28.5721 26.2496C28.183 25.5663 27.8427 24.8257 27.5684 24.0463C27.5572 24.0149 27.5461 23.9836 27.5351 23.9524C27.2055 23.0158 26.9777 22.099 26.9029 21.5258C26.8623 21.2149 26.8301 20.9056 26.8071 20.5973C24.2546 19.1172 21.9682 18.6638 20.4858 18.6134C20.2036 21.9849 21.2674 24.7905 22.885 26.94C23.6956 27.9395 24.6542 28.7911 25.6605 29.454L25.0736 30.4262C24.0351 29.6516 23.0315 28.6892 22.1691 27.5509C21.7836 27.0763 21.4286 26.57 21.113 26.0354C18.1529 25.8856 15.8949 26.542 14.5437 27.1857C16.408 31.8509 20.3696 34.0215 23.9691 34.6392L23.8666 35.6026C22.0301 35.343 20.1122 34.6582 18.4515 33.5181C15.7065 34.6555 13.9327 36.2215 12.9754 37.3861C14.7881 39.0985 16.8169 40.0208 18.8323 40.3917L19.102 40.4381C20.9421 40.7325 22.7625 40.5753 24.388 40.1485C24.4629 40.1271 24.5373 40.105 24.6113 40.0822L24.9441 40.9803C24.8425 41.0095 24.74 41.0377 24.6367 41.0649C22.9393 41.55 21.0341 41.7145 19.1679 41.4136C17.1525 43.625 16.1952 45.8072 15.8112 47.2744C18.139 48.0381 20.3375 48.0108 22.3013 47.497L22.5458 47.4202C24.3929 46.8905 26.0761 45.857 27.3857 44.6158L28.1525 45.3831C26.7634 46.6015 25.0255 47.6641 23.0408 48.2737C22.1856 51.1552 22.2653 53.5392 22.5518 55.0272C27.4507 54.3149 30.4787 50.9281 31.9384 47.5231L32.88 47.824C32.1883 49.5746 31.0714 51.3028 29.5826 52.6669C30.0029 55.6526 31.0669 57.783 31.9456 59.01C33.9859 57.6549 35.3459 55.9073 36.1901 54.0389L36.2845 53.7959C37.0452 51.9952 37.3523 49.9667 37.2253 48.1446L38.2685 48.0773C38.3226 49.945 38.0373 51.9899 37.2493 53.9438C38.9112 56.4322 40.7811 57.8687 42.0973 58.5784C44.6363 54.2556 43.9556 49.7294 42.2741 46.4321L43.064 45.8825C43.9656 47.5313 44.5823 49.5022 44.6871 51.5381C47.2316 53.0846 49.528 53.5839 51.0181 53.6611C51.2709 51.1578 50.7741 48.9543 49.8527 47.0933L49.8481 47.0928L49.7349 46.8641C49.7269 46.848 49.7189 46.8319 49.7108 46.8158C48.8444 45.1729 47.6477 43.8089 46.3573 42.7551C46.2821 42.6964 46.2066 42.6387 46.1306 42.5822L46.6361 41.7706C46.7341 41.8464 46.8317 41.9239 46.9288 42.0031C48.3145 43.0871 49.5737 44.5246 50.4518 46.2055C53.4001 46.5127 55.6887 45.9775 57.0712 45.4066C56.2627 43.0347 54.9019 41.2542 53.299 39.9646L53.0584 39.824C51.5529 38.6583 49.7591 37.9168 48.0205 37.5918L48.0854 36.4981C49.8842 36.8854 51.7756 37.6523 53.4605 38.8966C56.2195 37.858 58.0327 36.3653 59.0244 35.241C56.2523 32.4328 52.8725 31.58 49.8242 31.7719C49.0247 31.8372 48.2433 31.9814 47.5051 32.1913L47.1217 31.2401C47.9398 31.0323 48.8096 30.8877 49.7095 30.8276C50.7664 30.7379 51.8556 30.7759 52.9291 30.9687C54.9822 28.7934 55.9768 26.6285 56.3859 25.1684C54.0534 24.3571 51.8385 24.3515 49.8543 24.8419L49.5993 24.933C48.997 25.0828 48.41 25.2858 47.8457 25.5323C47.3215 25.7648 46.82 26.0298 46.3441 26.3199C45.7513 26.6857 45.1976 27.0971 44.6941 27.5391L44.0088 26.8446C44.542 26.3928 45.1248 25.9641 45.7513 25.5745C46.3346 25.2067 46.9547 24.8792 47.6029 24.6045C48.0961 24.3917 48.6083 24.2056 49.1374 24.0515C50.0873 21.2069 50.0891 18.8258 49.8541 17.3304C46.2453 17.7249 43.593 19.593 41.8138 21.883C41.1957 22.72 40.692 23.6243 40.3145 24.5381L39.3476 24.1409C39.7919 23.1867 40.3578 22.2324 41.0502 21.3346C41.5721 20.6247 42.1712 19.958 42.8423 19.3644C42.4744 16.3813 41.4525 14.2365 40.5966 12.9922C38.0465 14.7309 36.6734 16.7027 35.771 19.0817C36.1145 19.861 36.3364 20.6297 36.4774 21.385ZM29.4826 25.6243C29.4867 25.6219 29.4908 25.6195 29.4948 25.6171L29.4979 25.6153C29.4928 25.6183 29.4877 25.6213 29.4826 25.6243Z" fill="#864D16"/>
<path d="M36.4774 21.385C36.6409 22.1555 36.6812 22.8668 36.7178 23.762C37.0812 23.7659 37.4126 23.7794 37.7887 23.8262C38.2172 23.8795 38.6958 23.9747 39.3476 24.1409C39.7919 23.1867 40.3578 22.2324 41.0502 21.3346C41.5721 20.6247 42.1712 19.958 42.8423 19.3644C42.4744 16.3813 41.4525 14.2365 40.5966 12.9922C38.0465 14.7309 36.6734 16.7027 35.771 19.0817C36.1145 19.861 36.3364 20.6297 36.4774 21.385Z" fill="#FFC90E"/>
<path d="M35.5652 21.5979C35.701 22.3303 35.7559 23.0591 35.771 23.7881C34.0464 23.8332 32.7896 24.1113 31.7599 24.5007C30.8773 24.8345 30.1637 25.2516 29.5013 25.6388C29.4546 25.6661 29.4082 25.6932 29.3621 25.7201C29.0183 25.164 28.7055 24.4577 28.4499 23.7452C28.0713 22.6683 27.8288 21.5141 27.7738 20.3421L27.7136 20.0574C27.6291 17.9443 28.0352 15.8727 29.2595 13.5469C30.621 14.253 32.5716 15.7096 34.3034 18.2781C35.0232 19.7888 35.369 20.7153 35.5514 21.5347C35.5536 21.5446 35.5558 21.5545 35.5579 21.5644L35.5606 21.5766C35.5621 21.5837 35.5637 21.5908 35.5652 21.5979Z" fill="#FFC90E"/>
<path d="M26.9014 21.5435C26.8609 21.2325 26.8286 20.9233 26.8056 20.615C24.2531 19.1348 21.9668 18.6815 20.4844 18.6311C20.2022 22.0026 21.2659 24.8082 22.8835 26.9577C23.6941 27.9571 24.6528 28.8087 25.659 29.4716C26.3391 28.4445 27.3309 27.2105 28.5706 26.2672C28.1815 25.5839 27.8413 24.8433 27.567 24.064C27.5603 24.0453 27.5536 24.0266 27.547 24.008C27.5425 23.9954 27.5381 23.9827 27.5336 23.9701C27.2041 23.0335 26.9762 22.1167 26.9014 21.5435Z" fill="#FFC90E"/>
<path d="M40.3145 24.5381C40.692 23.6243 41.1957 22.72 41.8138 21.883C43.593 19.593 46.2453 17.7249 49.8541 17.3304C50.0891 18.8258 50.0873 21.2069 49.1374 24.0515C48.6083 24.2056 48.0961 24.3917 47.6029 24.6045C46.9547 24.8792 46.3346 25.2067 45.7513 25.5745C45.1248 25.9641 44.542 26.3928 44.0088 26.8446C42.8427 25.7748 41.44 25.0169 40.3145 24.5381Z" fill="#FFC90E"/>
<path d="M25.0736 30.4262C24.0351 29.6516 23.0315 28.6892 22.1691 27.5509C21.7836 27.0763 21.4286 26.57 21.113 26.0354C18.1529 25.8856 15.8949 26.542 14.5437 27.1857C16.408 31.8509 20.3696 34.0215 23.9691 34.6392C24.0998 33.432 24.4111 31.8652 25.0736 30.4262Z" fill="#FFC90E"/>
<path d="M24.9441 40.9803C24.8425 41.0095 24.74 41.0377 24.6367 41.0649C22.9393 41.55 21.0341 41.7145 19.1679 41.4136C17.1525 43.625 16.1952 45.8072 15.8112 47.2744C18.139 48.0381 20.3375 48.0108 22.3013 47.497L22.5458 47.4202C24.3929 46.8905 26.0761 45.857 27.3857 44.6158C26.5493 43.7094 25.5763 42.4373 24.9441 40.9803Z" fill="#FFC90E"/>
<path d="M23.8666 35.6026C23.8321 37.2554 24.2136 38.8863 24.6113 40.0822C24.5373 40.105 24.4629 40.1271 24.388 40.1485C22.7625 40.5753 20.9421 40.7325 19.102 40.4381L18.8323 40.3917C16.8169 40.0208 14.7881 39.0985 12.9754 37.3861C13.9327 36.2215 15.7065 34.6555 18.4515 33.5181C20.1122 34.6582 22.0301 35.343 23.8666 35.6026Z" fill="#FFC90E"/>
<path d="M23.0408 48.2737C22.1856 51.1552 22.2653 53.5392 22.5518 55.0272C27.4507 54.3149 30.4787 50.9281 31.9384 47.5231C30.8078 47.0979 29.372 46.4018 28.1525 45.3831C26.7634 46.6015 25.0255 47.6641 23.0408 48.2737Z" fill="#FFC90E"/>
<path d="M37.2253 48.1446C37.3523 49.9667 37.0452 51.9952 36.2845 53.7959L36.1901 54.0389C35.3459 55.9073 33.9859 57.6549 31.9456 59.01C31.0669 57.783 30.0029 55.6526 29.5826 52.6669C31.0714 51.3028 32.1883 49.5746 32.88 47.824C34.3875 48.2413 36.0066 48.2346 37.2253 48.1446Z" fill="#FFC90E"/>
<path d="M37.2493 53.9438C38.9112 56.4322 40.7811 57.8687 42.0973 58.5784C44.6363 54.2556 43.9556 49.7294 42.2741 46.4321C41.2403 47.0571 39.8097 47.7528 38.2685 48.0773C38.3226 49.945 38.0373 51.9899 37.2493 53.9438Z" fill="#FFC90E"/>
<path d="M49.7208 46.8466C49.7255 46.8561 49.7302 46.8655 49.7349 46.8749L49.8481 47.1036L49.8527 47.1041C50.7741 48.9651 51.2709 51.1686 51.0181 53.6719C49.528 53.5947 47.2316 53.0954 44.6871 51.5489C44.5823 49.513 43.9656 47.5421 43.064 45.8933C44.3814 44.9269 45.4314 43.6358 46.1306 42.593C46.2066 42.6495 46.2821 42.7071 46.3573 42.7659C47.6477 43.8197 48.8444 45.1837 49.7108 46.8266C49.7142 46.8333 49.7175 46.84 49.7208 46.8466Z" fill="#FFC90E"/>
<path d="M46.9288 42.0031C48.3145 43.0871 49.5737 44.5246 50.4518 46.2055C53.4001 46.5127 55.6887 45.9775 57.0712 45.4066C56.2627 43.0347 54.9019 41.2542 53.299 39.9646L53.0584 39.824C51.5529 38.6583 49.7591 37.9168 48.0205 37.5918C47.8129 38.8179 47.4002 40.3774 46.6361 41.7706C46.7341 41.8464 46.8317 41.9239 46.9288 42.0031Z" fill="#FFC90E"/>
<path d="M48.0854 36.4981C49.8842 36.8854 51.7756 37.6523 53.4605 38.8966C56.2195 37.858 58.0327 36.3653 59.0244 35.241C56.2523 32.4328 52.8725 31.58 49.8242 31.7719C49.0247 31.8372 48.2433 31.9814 47.5051 32.1913C47.8449 33.3607 48.1506 34.9207 48.0854 36.4981Z" fill="#FFC90E"/>
<path d="M49.7095 30.809C50.7664 30.7193 51.8556 30.7574 52.9291 30.9501C54.9822 28.7748 55.9768 26.61 56.3859 25.1498C54.0534 24.3385 51.8385 24.3329 49.8543 24.8233L49.5993 24.9144C48.997 25.0643 48.41 25.2673 47.8457 25.5137C47.3215 25.7462 46.82 26.0113 46.3441 26.3013C45.7513 26.6672 45.1976 27.0785 44.6941 27.5205C45.52 28.4343 46.4952 29.7343 47.1217 31.2215C47.9398 31.0138 48.8096 30.8692 49.7095 30.809Z" fill="#FFC90E"/>
<path d="M48.375 36C48.375 42.8345 42.8345 48.375 36 48.375C29.1655 48.375 23.625 42.8345 23.625 36C23.625 29.1655 29.1655 23.625 36 23.625C42.8345 23.625 48.375 29.1655 48.375 36Z" fill="#A6601B"/>
<path fill-rule="evenodd" clip-rule="evenodd" d="M36 46.9688C42.0579 46.9688 46.9688 42.0579 46.9688 36C46.9688 29.9421 42.0579 25.0313 36 25.0313C29.9421 25.0313 25.0313 29.9421 25.0313 36C25.0313 42.0579 29.9421 46.9688 36 46.9688ZM36 48.375C42.8345 48.375 48.375 42.8345 48.375 36C48.375 29.1655 42.8345 23.625 36 23.625C29.1655 23.625 23.625 29.1655 23.625 36C23.625 42.8345 29.1655 48.375 36 48.375Z" fill="#864D16"/>
<path d="M42.1875 36C42.1875 39.4173 39.4173 42.1875 36 42.1875C32.5827 42.1875 29.8125 39.4173 29.8125 36C29.8125 32.5827 32.5827 29.8125 36 29.8125C39.4173 29.8125 42.1875 32.5827 42.1875 36Z" fill="#864D16"/>
</svg>
